<svg width="20" height="18" viewBox="0 0 20 18" fill="none" xmlns="http://www.w3.org/2000/svg">
<path d="M18.0004 18C18.5308 18 19.0395 17.7893 19.4146 17.4142C19.7896 17.0391 20.0004 16.5304 20.0004 16V11.116C20.0004 10.5856 19.7896 10.0769 19.4146 9.70179C19.0395 9.32671 18.5308 9.116 18.0004 9.116H15.2244C15.2244 8.41333 15.2657 7.71067 15.3484 7.008C15.4724 6.264 15.679 5.60267 15.9684 5.024C16.2577 4.44533 16.6304 3.99 17.0864 3.658C17.5397 3.286 18.1184 3.1 18.8224 3.1V0C17.665 0 16.6517 0.248 15.7824 0.744C14.919 1.23375 14.1773 1.91191 13.6124 2.728C13.0436 3.6263 12.6248 4.61117 12.3724 5.644C12.1171 6.78349 11.9923 7.94831 12.0004 9.116V16C12.0004 16.5304 12.2111 17.0391 12.5862 17.4142C12.9612 17.7893 13.4699 18 14.0004 18H18.0004ZM6.00036 18C6.5308 18 7.03951 17.7893 7.41458 17.4142C7.78965 17.0391 8.00036 16.5304 8.00036 16V11.116C8.00036 10.5856 7.78965 10.0769 7.41458 9.70179C7.03951 9.32671 6.5308 9.116 6.00036 9.116H3.22436C3.22436 8.41333 3.2657 7.71067 3.34836 7.008C3.4737 6.264 3.68037 5.60267 3.96836 5.024C4.2577 4.44533 4.63037 3.99 5.08637 3.658C5.5397 3.286 6.11836 3.1 6.82236 3.1V0C5.66503 0 4.6517 0.248 3.78236 0.744C2.91905 1.23375 2.17731 1.91191 1.61236 2.728C1.04359 3.6263 0.624779 4.61117 0.372365 5.644C0.117132 6.78349 -0.00767052 7.94831 0.000364589 9.116V16C0.000364589 16.5304 0.211078 17.0391 0.586151 17.4142C0.961224 17.7893 1.46993 18 2.00036 18H6.00036Z" fill="#0AB7A8"/>
</svg>
