<svg width="63" height="24" viewBox="0 0 63 24" fill="none" xmlns="http://www.w3.org/2000/svg">
<g clip-path="url(#clip0_2014_11408)">
<path d="M0.38535 23.8059L11.8291 12.0755C11.8643 12.0406 11.8862 11.9944 11.8909 11.945C11.8956 11.8956 11.8827 11.8461 11.8547 11.8052C11.1588 10.8335 9.87465 10.6652 9.39882 10.0123C7.98919 8.07845 7.63151 6.98388 7.02576 7.05171C6.98351 7.05784 6.94457 7.07829 6.91568 7.10975L2.7818 11.3476C0.403717 13.7836 0.0618397 19.1529 2.97673e-06 23.6492C-0.000227684 23.6939 0.0129515 23.7377 0.0378421 23.7749C0.0627327 23.8121 0.098194 23.841 0.139656 23.8579C0.181118 23.8748 0.22668 23.8788 0.27047 23.8696C0.314261 23.8603 0.354273 23.8381 0.38535 23.8059Z" fill="#017CEE"/>
<path d="M23.8064 23.5164L12.076 12.0719C12.041 12.0365 11.9947 12.0145 11.9452 12.0099C11.8957 12.0052 11.8461 12.0181 11.8051 12.0463C10.8336 12.7425 10.6651 14.0263 10.0122 14.5021C8.07853 15.9118 6.98408 16.2694 7.0518 16.8752C7.05792 16.9173 7.07849 16.956 7.10984 16.9848L11.3476 21.1187C13.7835 23.497 19.1528 23.8389 23.6493 23.9006C23.6938 23.9006 23.7373 23.8873 23.7742 23.8625C23.8112 23.8377 23.8399 23.8024 23.8567 23.7612C23.8736 23.72 23.8778 23.6748 23.8688 23.6312C23.8599 23.5876 23.8381 23.5476 23.8064 23.5164Z" fill="#00AD46"/>
<path d="M11.3475 21.1199C10.0159 19.8207 9.39875 17.2507 11.951 11.9513C7.80202 13.8055 6.34818 16.2426 7.06316 16.9406L11.3475 21.1199Z" fill="#04D659"/>
<path d="M23.5162 0.096234L12.0728 11.8266C12.0374 11.8614 12.0154 11.9076 12.0107 11.9571C12.006 12.0066 12.0189 12.0561 12.0471 12.097C12.7435 13.0686 14.0269 13.237 14.5031 13.8899C15.9127 15.8237 16.2707 16.9183 16.8761 16.8504C16.9184 16.8445 16.9573 16.8239 16.9861 16.7924L21.12 12.5546C23.4983 10.1186 23.8402 4.7493 23.9019 0.252969C23.9019 0.208241 23.8887 0.164512 23.8637 0.127388C23.8388 0.0902638 23.8033 0.0614352 23.7619 0.044597C23.7204 0.0277587 23.6749 0.0236781 23.6311 0.0328779C23.5874 0.0420777 23.5473 0.0641389 23.5162 0.096234Z" fill="#00C7D4"/>
<path d="M21.1221 12.5547C19.8229 13.8862 17.253 14.5033 11.9531 11.9513C13.8072 16.1002 16.2445 17.554 16.9423 16.8391L21.1221 12.5547Z" fill="#11E1EE"/>
<path d="M0.0952531 0.38572L11.8256 11.8291C11.8605 11.8644 11.9068 11.8863 11.9562 11.891C12.0056 11.8957 12.0552 11.8829 12.0961 11.8548C13.0676 11.1584 13.2361 9.87466 13.8889 9.39882C15.8227 7.98919 16.9173 7.63152 16.8495 7.02576C16.8433 6.98349 16.8228 6.94463 16.7914 6.91568L12.5536 2.7818C10.1176 0.40372 4.74831 0.061842 0.251988 5.28626e-06C0.20715 -0.000302631 0.163252 0.0128478 0.125968 0.0377561C0.0886851 0.0626644 0.0597316 0.098185 0.0428519 0.139725C0.0259723 0.181265 0.0219428 0.226913 0.0312845 0.270767C0.0406263 0.314622 0.0629096 0.354665 0.0952531 0.38572Z" fill="#E43921"/>
<path d="M12.5555 2.78229C13.8871 4.08147 14.5042 6.65143 11.9521 11.9513C16.101 10.0971 17.5548 7.65943 16.8399 6.96196L12.5555 2.78229Z" fill="#FF7557"/>
<path d="M2.78223 11.348C4.08141 10.0163 6.65137 9.39919 11.9512 11.9513C10.097 7.80246 7.65986 6.34862 6.9619 7.06348L2.78223 11.348Z" fill="#0CB6FF"/>
<path d="M11.952 12.4609C12.2346 12.4609 12.4636 12.2318 12.4636 11.9493C12.4636 11.6668 12.2346 11.4377 11.952 11.4377C11.6695 11.4377 11.4404 11.6668 11.4404 11.9493C11.4404 12.2318 11.6695 12.4609 11.952 12.4609Z" fill="#4A4848"/>
<path d="M27.0898 7.79669C27.066 7.79608 27.0433 7.78635 27.0265 7.76951C27.0096 7.75268 26.9999 7.73002 26.9992 7.7062C26.9984 7.68942 27 7.67261 27.0038 7.65625L28.1267 4.72739C28.136 4.69683 28.1555 4.67034 28.1818 4.65227C28.2081 4.6342 28.2399 4.62563 28.2717 4.62796H28.5794C28.6449 4.62331 28.7051 4.6647 28.7244 4.72739L29.8424 7.65637L29.8514 7.7062C29.8509 7.73008 29.8412 7.75284 29.8243 7.76972C29.8074 7.78661 29.7847 7.79632 29.7608 7.79682H29.5302C29.5026 7.79853 29.4753 7.79047 29.4531 7.77404C29.4371 7.75882 29.4248 7.7402 29.417 7.71955L29.1682 7.07694H27.6833L27.4345 7.71955C27.4261 7.74103 27.4121 7.75985 27.3939 7.77404C27.3732 7.78989 27.3476 7.79791 27.3216 7.79669H27.0898ZM29.0365 6.68755L28.4255 5.08065L27.8145 6.68755H29.0365ZM30.3853 8.65653C30.371 8.65674 30.3569 8.65405 30.3437 8.64862C30.3305 8.64319 30.3185 8.63513 30.3085 8.62494C30.2993 8.61537 30.2922 8.60403 30.2875 8.59161C30.2828 8.57919 30.2807 8.56595 30.2813 8.55269V5.54829C30.2807 5.53503 30.2828 5.52179 30.2875 5.50937C30.2922 5.49696 30.2993 5.48562 30.3085 5.47604C30.3185 5.46585 30.3305 5.45779 30.3437 5.45236C30.3569 5.44693 30.371 5.44424 30.3853 5.44445H30.5935C30.6499 5.4469 30.6951 5.49196 30.6975 5.54829V5.74727C30.7824 5.632 30.8948 5.53977 31.0244 5.47893C31.1539 5.4181 31.2967 5.39059 31.4396 5.3989C31.5733 5.38911 31.7073 5.41107 31.8309 5.463C31.9545 5.51493 32.064 5.59534 32.1505 5.69767C32.3186 5.91967 32.4093 6.19064 32.4088 6.4691C32.4117 6.50216 32.4132 6.55347 32.4132 6.62302C32.4132 6.69257 32.4117 6.74384 32.4088 6.77682C32.4085 7.05513 32.3178 7.32583 32.1505 7.54825C32.0636 7.65011 31.9541 7.73019 31.8306 7.78207C31.7072 7.83396 31.5733 7.8562 31.4397 7.84702C31.2992 7.85361 31.1592 7.82621 31.0316 7.76714C30.9039 7.70807 30.7924 7.61908 30.7065 7.50772V8.55796C30.7071 8.57122 30.7049 8.58447 30.7003 8.59689C30.6956 8.60931 30.6884 8.62064 30.6792 8.63021C30.6703 8.64065 30.6591 8.64892 30.6465 8.65442C30.6339 8.65991 30.6203 8.66248 30.6066 8.66192L30.3853 8.65653ZM31.3451 7.47514C31.4332 7.48289 31.5219 7.46875 31.6033 7.43397C31.6847 7.39919 31.7562 7.34486 31.8116 7.2758C31.918 7.12149 31.9747 6.93831 31.974 6.75086C31.9769 6.72082 31.9784 6.67714 31.9784 6.61984C31.9784 6.04947 31.767 5.76429 31.3442 5.76429C31.2548 5.75843 31.1653 5.77431 31.0834 5.81059C31.0014 5.84686 30.9295 5.90244 30.8738 5.97257C30.7694 6.11399 30.711 6.28408 30.7065 6.4598L30.7016 6.63196L30.7065 6.80853C30.7096 6.979 30.7702 7.14342 30.8785 7.27506C30.9354 7.34225 31.0071 7.3953 31.088 7.43002C31.1689 7.46474 31.2568 7.48019 31.3447 7.47514H31.3451ZM33.63 7.84053C33.4875 7.84188 33.3467 7.81094 33.2179 7.75004C33.0979 7.6956 32.9936 7.6118 32.9146 7.50637C32.8432 7.40418 32.8053 7.2824 32.8059 7.15776C32.8045 7.06296 32.826 6.96922 32.8684 6.88442C32.9108 6.79962 32.9729 6.72623 33.0495 6.67041C33.2467 6.52869 33.4777 6.44136 33.7193 6.41719L34.3937 6.32216V6.19102C34.3937 5.88327 34.2178 5.72939 33.8659 5.72939C33.7514 5.72467 33.6382 5.75468 33.5411 5.81547C33.4626 5.86379 33.3974 5.93076 33.3511 6.01041C33.3449 6.03307 33.3324 6.05348 33.3149 6.06918C33.3075 6.07574 33.2989 6.08074 33.2896 6.0839C33.2802 6.08705 33.2704 6.0883 33.2605 6.08755H33.0657C33.0524 6.08846 33.0391 6.0865 33.0266 6.08182C33.0141 6.07714 33.0027 6.06983 32.9933 6.0604C32.9839 6.05097 32.9766 6.03963 32.9719 6.02714C32.9672 6.01465 32.9653 6.00131 32.9662 5.988C32.9759 5.89905 33.0104 5.81462 33.0657 5.74433C33.1452 5.6403 33.2494 5.55784 33.3689 5.50445C33.5259 5.43054 33.6981 5.39495 33.8715 5.40061C34.0033 5.38778 34.1364 5.40248 34.2622 5.4438C34.388 5.48511 34.5038 5.55214 34.6023 5.64061C34.7512 5.79979 34.831 6.01139 34.8244 6.22923V7.69616C34.8247 7.71049 34.8221 7.72473 34.8166 7.73799C34.8112 7.75124 34.803 7.76322 34.7927 7.77318C34.7832 7.78237 34.7718 7.78952 34.7594 7.79419C34.747 7.79886 34.7337 7.80097 34.7205 7.80037H34.5123C34.4983 7.80191 34.4841 7.80028 34.4707 7.79561C34.4574 7.79094 34.4453 7.78334 34.4352 7.77337C34.4252 7.7634 34.4176 7.75131 34.4128 7.73799C34.4081 7.72467 34.4064 7.71047 34.4079 7.69641V7.50196C34.3326 7.60565 34.2331 7.68932 34.118 7.74563C33.9654 7.81671 33.7978 7.8497 33.6296 7.84176L33.63 7.84053ZM33.725 7.50123C33.8138 7.50447 33.9023 7.48922 33.985 7.45644C34.0676 7.42366 34.1425 7.37407 34.205 7.31082C34.2718 7.23518 34.323 7.14704 34.3556 7.0515C34.3882 6.95595 34.4016 6.8549 34.3949 6.75416V6.62743L33.87 6.70457C33.6993 6.72032 33.534 6.77283 33.3855 6.85849C33.3371 6.88453 33.2966 6.92302 33.268 6.97C33.2395 7.01697 33.224 7.07071 33.2232 7.12567C33.2213 7.1814 33.2342 7.23664 33.2604 7.28585C33.2866 7.33506 33.3253 7.37652 33.3726 7.40608C33.4782 7.47148 33.6004 7.50494 33.7246 7.50245L33.725 7.50123ZM36.422 7.84053C36.2836 7.84833 36.145 7.82832 36.0144 7.78168C35.8838 7.73503 35.7638 7.66269 35.6616 7.56894C35.4697 7.35843 35.3659 7.0823 35.3717 6.79751L35.3673 6.61653L35.3717 6.43543C35.3659 6.15246 35.4698 5.87821 35.6616 5.67012C35.7631 5.57509 35.8829 5.50162 36.0135 5.45417C36.1442 5.40671 36.2832 5.38624 36.422 5.394C36.6129 5.3883 36.8023 5.42871 36.9743 5.5118C37.1097 5.57691 37.2253 5.67696 37.3092 5.80163C37.38 5.90339 37.422 6.02229 37.4309 6.14596C37.4327 6.15931 37.4312 6.17292 37.4265 6.18554C37.4217 6.19816 37.4139 6.20939 37.4037 6.21821C37.3823 6.23651 37.3548 6.24619 37.3266 6.24539H37.1093C37.0852 6.24714 37.0612 6.24071 37.0411 6.22714C37.0207 6.20692 37.0052 6.18218 36.9961 6.1549C36.9599 6.03103 36.8835 5.92276 36.7789 5.84719C36.6735 5.78049 36.5503 5.74736 36.4257 5.75216C36.343 5.7485 36.2605 5.76233 36.1836 5.79276C36.1066 5.82319 36.037 5.86953 35.9791 5.92874C35.8584 6.0775 35.7956 6.26499 35.8024 6.45649L35.798 6.61898L35.8024 6.77278C35.7946 6.96643 35.8574 7.15632 35.9791 7.30714C36.0373 7.36556 36.1072 7.41108 36.1841 7.44074C36.261 7.4704 36.3434 7.48354 36.4257 7.47931C36.5497 7.48396 36.6724 7.45248 36.7789 7.38869C36.8829 7.31062 36.959 7.20114 36.9961 7.07645C37.0054 7.04925 37.0208 7.02454 37.0411 7.00421C37.0504 6.9961 37.0613 6.98992 37.073 6.98603C37.0847 6.98214 37.097 6.98062 37.1093 6.98155H37.3266C37.3409 6.98129 37.3551 6.98396 37.3684 6.98939C37.3817 6.99482 37.3937 7.0029 37.4037 7.01314C37.4139 7.02196 37.4217 7.03319 37.4265 7.04581C37.4312 7.05843 37.4327 7.07203 37.4309 7.08539C37.421 7.20868 37.379 7.32725 37.3092 7.42935C37.2253 7.55404 37.1096 7.65409 36.9742 7.71918C36.8028 7.80471 36.6131 7.8468 36.4217 7.84176L36.422 7.84053ZM38.0777 7.79523C38.0636 7.79675 38.0494 7.79511 38.0361 7.79042C38.0227 7.78573 38.0106 7.77811 38.0006 7.76813C37.9906 7.75815 37.983 7.74605 37.9782 7.73273C37.9735 7.71941 37.9719 7.7052 37.9733 7.69114V4.68686C37.9727 4.6736 37.9748 4.66037 37.9795 4.64795C37.9842 4.63553 37.9913 4.62419 38.0005 4.61461C38.0105 4.60433 38.0225 4.5962 38.0358 4.59073C38.0491 4.58525 38.0633 4.58255 38.0777 4.58278H38.3038C38.3311 4.5838 38.357 4.59509 38.3764 4.61439C38.3957 4.63368 38.4071 4.65956 38.4082 4.68686V5.74237C38.49 5.63554 38.5953 5.54887 38.7159 5.48902C38.8531 5.42437 39.0037 5.39331 39.1552 5.39841C39.2815 5.39132 39.4078 5.41288 39.5245 5.46148C39.6413 5.51008 39.7456 5.58447 39.8295 5.67906C40.0002 5.88599 40.0871 6.14933 40.0732 6.41719V7.69347C40.0735 7.70783 40.0709 7.7221 40.0654 7.73537C40.0599 7.74865 40.0517 7.76065 40.0414 7.77061C40.0318 7.7798 40.0205 7.78695 40.008 7.79162C39.9956 7.79629 39.9824 7.79839 39.9691 7.7978H39.7431C39.7291 7.79926 39.7149 7.79757 39.7016 7.79287C39.6884 7.78816 39.6763 7.78055 39.6664 7.77058C39.6564 7.76062 39.6488 7.74856 39.6441 7.73529C39.6394 7.72201 39.6377 7.70785 39.6391 7.69384V6.43788C39.6504 6.2579 39.5939 6.08022 39.4808 5.93976C39.424 5.87921 39.3545 5.83198 39.2773 5.80143C39.2001 5.77088 39.1171 5.75778 39.0342 5.76306C38.9496 5.75925 38.865 5.77344 38.7862 5.80467C38.7074 5.83591 38.6361 5.88349 38.577 5.94429C38.459 6.08057 38.399 6.25757 38.4098 6.43751V7.69102C38.4101 7.70536 38.4075 7.71962 38.402 7.73289C38.3966 7.74617 38.3885 7.75818 38.3782 7.76816C38.3686 7.77735 38.3572 7.7845 38.3448 7.78917C38.3324 7.79384 38.3192 7.79595 38.3059 7.79535L38.0777 7.79523ZM41.6691 7.84053C41.5318 7.84698 41.3946 7.82508 41.2661 7.77621C41.1376 7.72733 41.0205 7.65253 40.9222 7.55645C40.7284 7.33963 40.6206 7.0595 40.6189 6.76874L40.6143 6.61494L40.6189 6.46555C40.6246 6.17743 40.7338 5.901 40.9266 5.68678C41.1346 5.49551 41.4086 5.39202 41.6911 5.39793C41.9737 5.40384 42.2431 5.51869 42.443 5.71849C42.6377 5.96148 42.736 6.26776 42.719 6.5787V6.65584C42.7193 6.67012 42.7166 6.6843 42.7112 6.69751C42.7057 6.71072 42.6976 6.72267 42.6874 6.73261C42.6778 6.7418 42.6665 6.74895 42.6541 6.75362C42.6416 6.75829 42.6284 6.7604 42.6151 6.7598H41.0488V6.80045C41.0527 6.9825 41.1146 7.15856 41.2253 7.3031C41.2778 7.36863 41.3447 7.42107 41.4209 7.45628C41.497 7.49149 41.5803 7.50852 41.6642 7.506C41.7827 7.51108 41.9003 7.48296 42.0036 7.42482C42.081 7.37955 42.1487 7.31956 42.203 7.24825C42.2186 7.22376 42.2386 7.20233 42.2619 7.18494C42.2861 7.1741 42.3126 7.16947 42.339 7.17147H42.5611C42.5856 7.17074 42.6098 7.17882 42.6289 7.19425C42.6472 7.20992 42.6574 7.23343 42.656 7.25755C42.6435 7.34998 42.5986 7.43499 42.5294 7.49755C42.4317 7.60247 42.3128 7.68551 42.1807 7.74123C42.0192 7.81071 41.8448 7.84498 41.6691 7.84176V7.84053ZM42.2891 6.44645V6.43298C42.2973 6.24835 42.2358 6.06738 42.1169 5.92592C42.0594 5.86312 41.9894 5.81298 41.9115 5.77867C41.8336 5.74436 41.7494 5.72665 41.6642 5.72665C41.5791 5.72665 41.4948 5.74436 41.4169 5.77867C41.339 5.81298 41.269 5.86312 41.2115 5.92592C41.0983 6.07001 41.0407 6.24996 41.0491 6.43298V6.44645H42.2891Z" fill="white"/>
<path d="M29.0353 6.68756V6.72246C29.0409 6.72243 29.0464 6.72105 29.0514 6.71844C29.0564 6.71582 29.0606 6.71204 29.0638 6.70743C29.067 6.70281 29.0691 6.6975 29.0698 6.69193C29.0705 6.68636 29.0698 6.6807 29.0679 6.67543L29.0353 6.68756ZM28.4243 5.08066L28.4569 5.06841C28.4543 5.06191 28.4498 5.05633 28.444 5.05239C28.4382 5.04846 28.4314 5.04636 28.4244 5.04636C28.4174 5.04636 28.4106 5.04846 28.4048 5.05239C28.399 5.05633 28.3945 5.06191 28.392 5.06841L28.4243 5.08066ZM27.8133 6.68756L27.7808 6.67531C27.7788 6.68057 27.7782 6.68623 27.7789 6.69181C27.7795 6.69739 27.7816 6.70272 27.7847 6.70734C27.7879 6.71197 27.7922 6.71576 27.7972 6.71839C27.8021 6.72103 27.8076 6.72242 27.8133 6.72246V6.68756ZM27.089 7.7618C27.0814 7.76214 27.0738 7.76078 27.0668 7.75784C27.0598 7.7549 27.0535 7.75044 27.0484 7.74478L26.9989 7.79388C27.0103 7.80571 27.024 7.81511 27.0391 7.82153C27.0543 7.82795 27.0706 7.83125 27.087 7.83123L27.089 7.7618ZM27.0484 7.74478C27.0428 7.73965 27.0384 7.73336 27.0354 7.72634C27.0325 7.71932 27.0311 7.71174 27.0313 7.70413H26.962C26.962 7.72058 26.9653 7.73686 26.9717 7.75201C26.9781 7.76716 26.9875 7.78086 26.9993 7.79229L27.0484 7.74478ZM27.0313 7.70413C27.0305 7.69055 27.0315 7.67693 27.0342 7.6636L26.9681 7.64156C26.9629 7.66156 26.9607 7.68188 26.9615 7.70254L27.0313 7.70413ZM27.0334 7.66678L28.156 4.73792L28.0911 4.71319L26.9685 7.64217L27.0334 7.66678ZM28.1564 4.73719C28.1635 4.71405 28.1777 4.69374 28.197 4.67915C28.2181 4.66586 28.2428 4.65932 28.2677 4.66041V4.59062C28.2287 4.58942 28.1903 4.60019 28.1576 4.62148C28.126 4.64418 28.1024 4.67634 28.0902 4.71331L28.1564 4.73719ZM28.2684 4.66041H28.5761V4.59062H28.2684V4.66041ZM28.5761 4.66041C28.6012 4.65924 28.6259 4.66578 28.6471 4.67915C28.6665 4.69374 28.6807 4.71405 28.6878 4.73719L28.7532 4.71319C28.741 4.67622 28.7174 4.64406 28.6858 4.62135C28.653 4.60004 28.6145 4.58931 28.5754 4.59062L28.5761 4.66041ZM28.6887 4.73756L29.8067 7.66641L29.8716 7.64168L28.7537 4.7127L28.6887 4.73756ZM29.8051 7.66078L29.8141 7.71062L29.8827 7.69813L29.8737 7.64817L29.8051 7.66078ZM29.8137 7.70413C29.814 7.71174 29.8126 7.71932 29.8096 7.72634C29.8066 7.73336 29.8022 7.73965 29.7966 7.74478L29.8457 7.79388C29.8575 7.78245 29.8669 7.76875 29.8733 7.7536C29.8797 7.73846 29.883 7.72217 29.883 7.70572L29.8137 7.70413ZM29.7966 7.74478C29.7915 7.75039 29.7852 7.75483 29.7782 7.75779C29.7712 7.76075 29.7636 7.76216 29.756 7.76192V7.83123C29.7892 7.83123 29.8211 7.81776 29.8442 7.79388L29.7966 7.74478ZM29.756 7.76192H29.5253V7.83123H29.756V7.76192ZM29.5253 7.76192C29.5059 7.76358 29.4866 7.75838 29.4706 7.74723L29.4259 7.80086C29.4544 7.82254 29.4896 7.83344 29.5253 7.8316V7.76192ZM29.4731 7.74919C29.4607 7.73798 29.4511 7.72412 29.4449 7.70866L29.3793 7.73058C29.3886 7.75629 29.4039 7.77956 29.424 7.79841L29.4731 7.74919ZM29.4447 7.70866L29.1957 7.06556L29.1308 7.09066L29.3796 7.73352L29.4447 7.70866ZM29.1633 7.04364H27.6786V7.11307H29.1633V7.04364ZM27.6461 7.06592L27.3968 7.70903L27.4617 7.73425L27.7107 7.09152L27.6461 7.06592ZM27.3963 7.71025C27.39 7.72623 27.3795 7.74026 27.366 7.7509L27.411 7.80356C27.434 7.78543 27.4517 7.76131 27.4621 7.73376L27.3963 7.71025ZM27.3663 7.7509C27.3519 7.76178 27.334 7.76697 27.316 7.76548V7.8349C27.3503 7.83613 27.3837 7.82523 27.4105 7.80405L27.3663 7.7509ZM27.316 7.76548H27.0849V7.8349H27.316V7.76548ZM29.0642 6.67862L28.4532 5.07172L28.3883 5.09645L28.9993 6.70335L29.0642 6.67862ZM28.3878 5.07172L27.7768 6.67862L27.8417 6.70335L28.4527 5.09645L28.3878 5.07172ZM27.8092 6.72613H29.0313V6.6567H27.8092V6.72613ZM30.6927 5.74972H30.6578C30.6577 5.75707 30.6601 5.76423 30.6644 5.77018C30.6687 5.77614 30.6747 5.78059 30.6817 5.78289C30.6887 5.7852 30.6962 5.78525 30.7032 5.78303C30.7102 5.78081 30.7163 5.77644 30.7207 5.77054L30.6927 5.74972ZM30.7016 7.50968L30.7291 7.48862C30.7247 7.4829 30.7186 7.47871 30.7116 7.47662C30.7047 7.47453 30.6973 7.47465 30.6904 7.47697C30.6836 7.47928 30.6776 7.48367 30.6733 7.48954C30.6691 7.4954 30.6668 7.50244 30.6667 7.50968H30.7016ZM30.3792 8.62739C30.3694 8.62767 30.3597 8.62589 30.3507 8.62218C30.3417 8.61846 30.3335 8.6129 30.3268 8.60584L30.2778 8.65507C30.3046 8.68188 30.3412 8.69658 30.3792 8.6956V8.62739ZM30.3268 8.60584C30.3208 8.59947 30.3162 8.59195 30.3133 8.58373C30.3104 8.57552 30.3092 8.56679 30.3098 8.55809H30.24C30.2386 8.59409 30.2522 8.62911 30.2773 8.65507L30.3268 8.60584ZM30.3098 8.55809V5.55356H30.24V8.55809H30.3098ZM30.3098 5.55356C30.3092 5.54481 30.3104 5.53615 30.3133 5.52789C30.3163 5.51963 30.3209 5.51207 30.3269 5.50568L30.2777 5.4567C30.2652 5.46946 30.2554 5.48465 30.249 5.50133C30.2425 5.51801 30.2396 5.53582 30.2403 5.55368L30.3098 5.55356ZM30.3269 5.50568C30.3336 5.49866 30.3418 5.49313 30.3508 5.48944C30.3598 5.48575 30.3695 5.48398 30.3792 5.48425V5.41445C30.3412 5.41348 30.3045 5.42817 30.2777 5.45486L30.3269 5.50568ZM30.3792 5.48425H30.5875V5.41445H30.3792V5.48425ZM30.5875 5.48425C30.5961 5.48366 30.6048 5.48511 30.6128 5.48849C30.6207 5.49188 30.6278 5.49709 30.6334 5.50372L30.686 5.45866C30.6739 5.4444 30.6587 5.43306 30.6416 5.42547C30.6244 5.41788 30.6058 5.41424 30.5871 5.41482L30.5875 5.48425ZM30.6374 5.50776C30.6509 5.51915 30.658 5.53617 30.657 5.55368H30.7263C30.7269 5.535 30.7232 5.51643 30.7156 5.49935C30.708 5.48227 30.6967 5.46711 30.6825 5.45499L30.6374 5.50776ZM30.657 5.55368V5.75254H30.7263V5.55368H30.657ZM30.7198 5.77323C30.8016 5.6624 30.9097 5.57377 31.0344 5.51543C31.1592 5.45708 31.2965 5.43087 31.434 5.43919V5.36976C31.2853 5.36123 31.1369 5.38996 31.0022 5.45334C30.8675 5.51672 30.7507 5.61275 30.6625 5.7327L30.7198 5.77323ZM31.434 5.43919C31.5622 5.42921 31.691 5.44976 31.8097 5.49914C31.9285 5.54851 32.0339 5.62532 32.1172 5.72327L32.1721 5.68029C32.0823 5.57387 31.9686 5.49017 31.8404 5.43599C31.7121 5.38182 31.5729 5.3587 31.434 5.36854V5.43919ZM32.1172 5.72327C32.2804 5.93888 32.3684 6.20203 32.3678 6.47241L32.4372 6.4696C32.4373 6.18429 32.3441 5.90677 32.1717 5.67943L32.1172 5.72327ZM32.3678 6.47437C32.3706 6.50609 32.3723 6.55556 32.3723 6.62548H32.4417C32.4417 6.55605 32.4417 6.50364 32.4368 6.46837L32.3678 6.47437ZM32.3723 6.62548C32.3723 6.6949 32.3723 6.74486 32.3678 6.77646L32.4368 6.78258C32.44 6.74768 32.4417 6.6949 32.4417 6.62548H32.3723ZM32.3678 6.77805C32.3676 7.04841 32.2797 7.31142 32.1172 7.52756L32.1717 7.57066C32.3432 7.34296 32.4363 7.06589 32.4372 6.78086L32.3678 6.77805ZM32.1172 7.52719C32.0335 7.62468 31.928 7.70116 31.8094 7.7505C31.6907 7.79984 31.5621 7.82065 31.434 7.81127V7.88082C31.5727 7.8898 31.7116 7.86628 31.8397 7.81214C31.9678 7.758 32.0815 7.67473 32.1717 7.56895L32.1172 7.52719ZM31.434 7.81127C31.2988 7.81801 31.1641 7.792 31.0411 7.73546C30.9182 7.67893 30.8107 7.59353 30.7279 7.48654L30.6728 7.52719C30.7619 7.64285 30.8776 7.73533 31.01 7.7968C31.1424 7.85827 31.2877 7.88693 31.4336 7.88033L31.434 7.81127ZM30.6658 7.50686V8.55723H30.7356V7.50686H30.6658ZM30.6658 8.55723C30.6664 8.56594 30.6652 8.57467 30.6622 8.58289C30.6593 8.5911 30.6547 8.59863 30.6487 8.60499L30.6979 8.65421C30.7231 8.62837 30.7366 8.59323 30.7353 8.55723H30.6658ZM30.6471 8.60707C30.6414 8.61368 30.6343 8.61889 30.6263 8.62228C30.6183 8.62568 30.6096 8.62718 30.6009 8.62666V8.69646C30.6389 8.69768 30.6753 8.68152 30.7 8.65262L30.6471 8.60707ZM30.6009 8.62666H30.3793V8.69646H30.6009V8.62666ZM31.3386 7.51458C31.4322 7.52233 31.5263 7.50691 31.6125 7.46966C31.6987 7.43241 31.7745 7.3745 31.833 7.30103L31.7771 7.26037C31.7249 7.3249 31.6576 7.37553 31.5812 7.40777C31.5048 7.44 31.4215 7.45285 31.3389 7.44515L31.3386 7.51458ZM31.8327 7.30152C31.9435 7.14159 32.0029 6.9516 32.0029 6.75699L31.9333 6.75417C31.934 6.93476 31.8794 7.11124 31.7771 7.26001L31.8327 7.30152ZM32.0024 6.75907C32.0056 6.7269 32.0073 6.68197 32.0073 6.62425H31.9375C31.9375 6.68107 31.9375 6.72368 31.9329 6.75209L32.0024 6.75907ZM32.0073 6.62425C32.0234 6.39149 31.9655 6.1596 31.842 5.96168C31.7832 5.88528 31.7066 5.8245 31.6188 5.78469C31.531 5.74489 31.4348 5.72729 31.3386 5.73343V5.80286C31.5115 5.79062 31.679 5.86568 31.7851 6.0027C31.8997 6.1887 31.9528 6.40602 31.937 6.62388L32.0073 6.62425ZM31.3386 5.73392C31.2437 5.72795 31.1488 5.74502 31.062 5.78368C30.9752 5.82234 30.899 5.88144 30.84 5.95592L30.8952 5.99658C30.9478 5.93072 31.0156 5.87861 31.0927 5.84474C31.1699 5.81087 31.2541 5.79625 31.3382 5.80213L31.3386 5.73392ZM30.84 5.95592C30.731 6.10344 30.6701 6.28089 30.6655 6.46421L30.7353 6.46752C30.7395 6.29792 30.7962 6.13382 30.8976 5.9978L30.84 5.95592ZM30.6655 6.46507L30.6609 6.63723H30.7304L30.7349 6.46507H30.6655ZM30.6609 6.63894L30.6655 6.81539H30.7353L30.7309 6.63882L30.6609 6.63894ZM30.6655 6.81588C30.669 6.99389 30.7323 7.16553 30.8453 7.30311L30.8992 7.25878C30.7963 7.13249 30.7391 6.97512 30.7369 6.81221L30.6655 6.81588ZM30.8453 7.30311C30.9055 7.37409 30.9814 7.43016 31.0669 7.46691C31.1524 7.50367 31.2453 7.52011 31.3382 7.51495V7.44552C31.2555 7.45066 31.1728 7.4365 31.0965 7.40416C31.0203 7.37181 30.9526 7.32217 30.8989 7.25915L30.8453 7.30311ZM34.3973 7.50515H34.4322C34.4321 7.49783 34.4296 7.49076 34.4251 7.48493C34.4207 7.47911 34.4146 7.47482 34.4076 7.47268C34.4006 7.47054 34.3931 7.47066 34.3861 7.47301C34.3792 7.47537 34.3732 7.47984 34.3689 7.4858L34.3973 7.50515ZM34.388 6.63515H34.4229C34.4229 6.63008 34.4218 6.62507 34.4197 6.62047C34.4176 6.61588 34.4145 6.6118 34.4106 6.60852C34.4067 6.60525 34.4022 6.60286 34.3973 6.60151C34.3924 6.60017 34.3873 6.5999 34.3823 6.60074L34.388 6.63515ZM33.6231 7.81335C33.4858 7.81471 33.35 7.78485 33.226 7.72605L33.196 7.78899C33.3295 7.85205 33.4752 7.88413 33.6227 7.88278L33.6231 7.81335ZM33.226 7.72605C33.1112 7.67359 33.0114 7.59318 32.9358 7.49217L32.8797 7.53282C32.962 7.64315 33.0708 7.73099 33.196 7.78825L33.226 7.72605ZM32.9365 7.49339C32.8691 7.39707 32.8332 7.2822 32.8338 7.16462H32.764C32.7633 7.29628 32.8034 7.42491 32.8789 7.53282L32.9365 7.49339ZM32.8338 7.16462C32.8324 7.07482 32.8526 6.986 32.8929 6.9057C32.9331 6.8254 32.9921 6.75599 33.0649 6.70335L33.0222 6.64862C32.941 6.70774 32.8752 6.7855 32.8303 6.87536C32.7855 6.96522 32.7628 7.06455 32.7644 7.16499L32.8338 7.16462ZM33.0649 6.70299C33.2572 6.56483 33.4825 6.47981 33.7181 6.4565L33.7083 6.38756C33.4605 6.41241 33.2237 6.5023 33.0219 6.64813L33.0649 6.70299ZM33.7181 6.4565L34.3924 6.3616L34.3827 6.29254L33.708 6.38756L33.7181 6.4565ZM34.4226 6.32707V6.19592H34.3531V6.32694L34.4226 6.32707ZM34.4226 6.19592C34.4274 6.12709 34.417 6.05803 34.392 5.99369C34.3671 5.92934 34.3283 5.87129 34.2783 5.82368C34.1579 5.73287 34.0087 5.68873 33.8582 5.69939V5.76919C33.9918 5.75851 34.1247 5.79642 34.2325 5.87597C34.2752 5.91698 34.3083 5.96696 34.3293 6.02228C34.3503 6.07761 34.3589 6.13691 34.3542 6.19592H34.4226ZM33.8582 5.69939C33.7364 5.69453 33.6159 5.72663 33.5128 5.79148L33.5532 5.84915C33.6448 5.79172 33.7517 5.76342 33.8598 5.76797L33.8582 5.69939ZM33.5135 5.79123C33.4296 5.84218 33.3598 5.91332 33.3105 5.99817L33.3713 6.03233C33.4151 5.95776 33.4765 5.8951 33.5501 5.84988L33.5135 5.79123ZM33.3105 6.00392C33.3061 6.02017 33.2974 6.03491 33.2853 6.04654L33.3287 6.1009C33.3514 6.08095 33.3679 6.05486 33.3762 6.02584L33.3105 6.00392ZM33.2829 6.04923C33.2745 6.05563 33.2638 6.05845 33.2533 6.05707V6.1265C33.2677 6.12725 33.282 6.12513 33.2955 6.12025C33.3091 6.11537 33.3215 6.10784 33.332 6.09809L33.2829 6.04923ZM33.2533 6.05707H33.0584V6.1265H33.2533V6.05707ZM33.0584 6.05707C33.0401 6.05721 33.0224 6.05053 33.0088 6.03833L32.9635 6.09111C32.9897 6.11413 33.0235 6.12662 33.0584 6.1265V6.05707ZM33.0124 6.04201C33.0001 6.02833 32.9933 6.01049 32.9935 5.99205H32.924C32.9238 6.02707 32.9363 6.06086 32.9593 6.08707L33.0124 6.04201ZM32.9935 5.99376C33.0029 5.91116 33.0352 5.83284 33.0868 5.7676L33.03 5.72694C32.9704 5.80283 32.9337 5.8941 32.924 5.99009L32.9935 5.99376ZM33.0868 5.76797C33.1628 5.66853 33.2626 5.58979 33.377 5.53899L33.3466 5.47654C33.2218 5.53247 33.1129 5.61871 33.03 5.72743L33.0868 5.76797ZM33.3775 5.53899C33.5296 5.4674 33.6966 5.43302 33.8647 5.4387V5.36927C33.6857 5.36356 33.508 5.40059 33.3462 5.47727L33.3775 5.53899ZM33.8647 5.4387C33.9913 5.42614 34.1192 5.43997 34.2403 5.47932C34.3613 5.51866 34.4729 5.58268 34.5679 5.66731L34.619 5.62017C34.5175 5.5284 34.398 5.45872 34.2682 5.41553C34.1383 5.37234 34.0009 5.35659 33.8647 5.36927V5.4387ZM34.5683 5.66768C34.711 5.82041 34.7874 6.02349 34.7806 6.23241H34.85C34.8567 6.0058 34.7735 5.78575 34.6186 5.62017L34.5683 5.66768ZM34.7806 6.23241V7.69935H34.85V6.23241H34.7806ZM34.7806 7.69935C34.7809 7.70909 34.7791 7.71877 34.7754 7.72778C34.7717 7.73678 34.7661 7.74491 34.7591 7.75164L34.8082 7.80086C34.8214 7.78754 34.8319 7.77166 34.8389 7.7542C34.8459 7.73673 34.8492 7.71804 34.8488 7.69923L34.7806 7.69935ZM34.7591 7.75164C34.7527 7.75763 34.7451 7.76225 34.7369 7.7652C34.7287 7.76815 34.7199 7.76937 34.7112 7.76878V7.83821C34.7473 7.83944 34.7822 7.82597 34.8082 7.80086L34.7591 7.75164ZM34.7112 7.76878H34.5029V7.83821H34.7111L34.7112 7.76878ZM34.5029 7.76878C34.4831 7.76941 34.4637 7.76275 34.4485 7.75005L34.4035 7.80282C34.4311 7.82646 34.4665 7.83919 34.5029 7.83858V7.76878ZM34.4526 7.75372C34.4395 7.73868 34.4327 7.71924 34.4335 7.69935H34.364C34.3633 7.73572 34.3758 7.77111 34.3994 7.79878L34.4526 7.75372ZM34.4335 7.69935V7.50478H34.364V7.69935H34.4335ZM34.3702 7.48495C34.2983 7.58433 34.203 7.66449 34.0928 7.71833L34.1249 7.78005C34.245 7.7209 34.3489 7.63325 34.4273 7.52474L34.3702 7.48495ZM34.0928 7.71833C33.9468 7.7875 33.7862 7.82039 33.6247 7.81421V7.88364C33.7974 7.88976 33.9691 7.85423 34.1253 7.78005L34.0928 7.71833ZM33.7197 7.54421C33.8132 7.54755 33.9064 7.53145 33.9933 7.49693C34.0803 7.4624 34.1591 7.4102 34.2248 7.34364L34.1749 7.2949C34.1156 7.35481 34.0446 7.40172 33.9662 7.43262C33.8878 7.46353 33.8039 7.47776 33.7197 7.47441V7.54421ZM34.2248 7.34364C34.2948 7.26474 34.3484 7.17279 34.3827 7.07308C34.417 6.97336 34.4312 6.86785 34.4245 6.76262H34.3551C34.3617 6.85891 34.3492 6.95555 34.3182 7.04697C34.2873 7.13839 34.2386 7.22278 34.1749 7.29527L34.2248 7.34364ZM34.4245 6.76262V6.63601H34.3551V6.76262H34.4245ZM34.384 6.60025L33.8589 6.67703L33.8691 6.74609L34.394 6.66931L34.384 6.60025ZM33.8589 6.67703C33.6832 6.69347 33.5131 6.74791 33.3604 6.83658L33.399 6.89462C33.5432 6.81185 33.7036 6.7613 33.8692 6.74646L33.8589 6.67703ZM33.3608 6.83621C33.3074 6.86528 33.2626 6.90804 33.2312 6.96012C33.1997 7.01219 33.1827 7.0717 33.1818 7.13254H33.2516C33.2525 7.08335 33.2666 7.0353 33.2925 6.99345C33.3183 6.95159 33.3549 6.91745 33.3985 6.89462L33.3608 6.83621ZM33.1818 7.13254C33.1799 7.19399 33.1941 7.25486 33.2231 7.30911C33.252 7.36337 33.2946 7.40913 33.3466 7.44184L33.3852 7.38429C33.3426 7.35786 33.3078 7.32065 33.2843 7.27644C33.2608 7.23223 33.2494 7.18258 33.2512 7.13254H33.1818ZM33.3475 7.4427C33.4591 7.51127 33.5883 7.54617 33.7193 7.54311V7.47356C33.6016 7.4766 33.4855 7.44542 33.3852 7.3838L33.3475 7.4427ZM36.4168 7.80637C36.2828 7.81426 36.1486 7.7952 36.022 7.75032C35.8955 7.70544 35.7793 7.63564 35.6802 7.54507L35.6315 7.59454C35.7369 7.69158 35.8606 7.76652 35.9954 7.81491C36.1302 7.86331 36.2734 7.88418 36.4164 7.87629L36.4168 7.80637ZM35.6807 7.54543C35.4954 7.3415 35.3953 7.07434 35.4009 6.79886L35.3315 6.80131C35.3265 7.09405 35.4337 7.37761 35.6311 7.5938L35.6807 7.54543ZM35.4009 6.79923L35.3965 6.61813H35.3271L35.3315 6.79923H35.4009ZM35.3965 6.61972L35.4009 6.43874H35.3315L35.3271 6.61972H35.3965ZM35.4009 6.43911C35.3948 6.16497 35.4951 5.8991 35.6807 5.69731L35.6311 5.64821C35.4332 5.86245 35.3258 6.145 35.3315 6.43666L35.4009 6.43911ZM35.6807 5.69731C35.779 5.60541 35.8949 5.53446 36.0214 5.48876C36.1479 5.44306 36.2824 5.42357 36.4167 5.43148V5.36205C36.2732 5.35422 36.1297 5.37554 35.9948 5.42473C35.8598 5.47391 35.7363 5.54994 35.6315 5.64821L35.6807 5.69731ZM36.4167 5.43148C36.6019 5.42564 36.7858 5.46463 36.9527 5.54511L36.9847 5.48339C36.8079 5.39753 36.6129 5.35573 36.4164 5.36156L36.4167 5.43148ZM36.9527 5.54511C37.0827 5.60723 37.1936 5.70294 37.2742 5.82233L37.3331 5.78548C37.246 5.6555 37.1257 5.5512 36.9847 5.48339L36.9527 5.54511ZM37.2746 5.82319C37.3418 5.91919 37.3819 6.03135 37.3911 6.14805L37.4605 6.14437C37.451 6.01465 37.4069 5.88985 37.3327 5.78303L37.2746 5.82319ZM37.3911 6.1516C37.3922 6.15908 37.3914 6.16672 37.3888 6.17383C37.3862 6.18093 37.3818 6.18726 37.3762 6.19225L37.4216 6.24503C37.4365 6.23279 37.448 6.21699 37.4551 6.19908C37.4622 6.18118 37.4647 6.16177 37.4622 6.14266L37.3911 6.1516ZM37.3762 6.19225C37.3609 6.20498 37.3415 6.21165 37.3217 6.21099V6.28029C37.3583 6.28103 37.3938 6.26829 37.4216 6.24466L37.3762 6.19225ZM37.3217 6.21099H37.1046V6.28029H37.3217V6.21099ZM37.1046 6.21099C37.0884 6.21266 37.0721 6.20891 37.0583 6.20033L37.0148 6.25482C37.0409 6.27343 37.0725 6.28262 37.1046 6.28078V6.21099ZM37.0583 6.20033C37.0425 6.18362 37.0306 6.16369 37.0233 6.14192L36.9592 6.16874C36.9706 6.20143 36.9896 6.23094 37.0148 6.25482L37.0583 6.20033ZM37.0241 6.14352C36.9852 6.01256 36.9038 5.8983 36.7927 5.81878L36.755 5.87719C36.8531 5.94862 36.9245 6.05075 36.958 6.16739L37.0241 6.14352ZM36.7935 5.81878C36.6824 5.74802 36.5524 5.71275 36.4208 5.71764V5.78707C36.5385 5.78232 36.6548 5.81331 36.7545 5.87597L36.7935 5.81878ZM36.4208 5.71764C36.3332 5.7139 36.2457 5.72867 36.1641 5.76099C36.0826 5.79332 36.0087 5.84246 35.9474 5.90523L35.9978 5.95311C36.0525 5.89713 36.1186 5.85342 36.1915 5.82486C36.2644 5.7963 36.3426 5.78354 36.4208 5.78743V5.71764ZM35.9474 5.90523C35.8204 6.06063 35.7543 6.25692 35.7614 6.45748L35.8309 6.4598C35.8233 6.27615 35.8826 6.09598 35.9978 5.95274L35.9474 5.90523ZM35.7614 6.45772L35.757 6.62021H35.8264L35.8309 6.45772H35.7614ZM35.757 6.62266L35.7614 6.77646L35.8309 6.7745L35.8264 6.62058L35.757 6.62266ZM35.7614 6.77695C35.7538 6.97888 35.8199 7.17668 35.9474 7.33348L35.9978 7.2856C35.8821 7.14084 35.8228 6.9591 35.8309 6.77401L35.7614 6.77695ZM35.9474 7.33348C36.009 7.39557 36.083 7.44399 36.1646 7.47555C36.2462 7.50712 36.3335 7.52112 36.4208 7.51666V7.44686C36.3428 7.45117 36.2648 7.43891 36.1919 7.4109C36.119 7.3829 36.0528 7.33978 35.9978 7.28437L35.9474 7.33348ZM36.4208 7.51666C36.5515 7.52136 36.6807 7.48792 36.7927 7.42041L36.755 7.36188C36.6542 7.42199 36.5381 7.45147 36.4208 7.44674V7.51666ZM36.7935 7.41992C36.9038 7.33766 36.9847 7.22208 37.0241 7.09029L36.9584 7.06715C36.924 7.18472 36.8529 7.28816 36.7553 7.36225L36.7935 7.41992ZM37.0233 7.09237C37.0306 7.07058 37.0425 7.05062 37.0583 7.03384L37.0148 6.97948C36.9897 7.00351 36.9707 7.03313 36.9592 7.06592L37.0233 7.09237ZM37.0611 7.03115C37.0671 7.02626 37.0741 7.02261 37.0816 7.02043C37.089 7.01824 37.0968 7.01756 37.1046 7.01841V6.94899C37.0877 6.948 37.0708 6.95041 37.0549 6.95607C37.039 6.96173 37.0244 6.97052 37.012 6.98192L37.0611 7.03115ZM37.1046 7.01841H37.3217V6.94899H37.1046V7.01841ZM37.3217 7.01841C37.3314 7.01814 37.3411 7.01992 37.3502 7.02363C37.3592 7.02734 37.3673 7.03291 37.3741 7.03997L37.4232 6.99086C37.4099 6.9776 37.394 6.96717 37.3766 6.96018C37.3591 6.9532 37.3405 6.94981 37.3217 6.95021V7.01841ZM37.3762 7.04168C37.3818 7.04665 37.3861 7.05294 37.3887 7.05999C37.3913 7.06705 37.3922 7.07464 37.3911 7.08209L37.4602 7.08907C37.4626 7.06998 37.4601 7.05059 37.453 7.03271C37.4459 7.01483 37.4344 6.99904 37.4195 6.98682L37.3762 7.04168ZM37.3911 7.08576C37.3814 7.20322 37.3411 7.31608 37.2742 7.41307L37.3327 7.45041C37.4059 7.34328 37.45 7.21891 37.4605 7.08956L37.3911 7.08576ZM37.2742 7.41307C37.1936 7.53251 37.0827 7.62826 36.9527 7.69041L36.9847 7.75213C37.1257 7.68427 37.2459 7.57998 37.3331 7.45005L37.2742 7.41307ZM36.9522 7.69078C36.7855 7.77169 36.6016 7.8107 36.4164 7.80441V7.87384C36.6129 7.88045 36.8081 7.83865 36.9847 7.75213L36.9522 7.69078ZM38.4025 5.73833H38.368C38.3681 5.74553 38.3704 5.75252 38.3746 5.75837C38.3788 5.76421 38.3847 5.76861 38.3915 5.77097C38.3982 5.77333 38.4056 5.77353 38.4125 5.77155C38.4194 5.76956 38.4256 5.76549 38.4301 5.75988L38.4025 5.73833ZM38.0724 7.76021C38.0526 7.76084 38.0333 7.75418 38.018 7.74148L37.9725 7.79425C38.0002 7.81801 38.0356 7.83074 38.072 7.83001L38.0724 7.76021ZM38.0221 7.74515C38.0094 7.72994 38.0027 7.71059 38.0033 7.69078H37.9335C37.9328 7.72715 37.9453 7.76254 37.9689 7.79021L38.0221 7.74515ZM38.0033 7.69078V4.68637H37.9335V7.69078H38.0033ZM38.0033 4.68637C38.0028 4.67766 38.004 4.66893 38.007 4.66071C38.0099 4.6525 38.0145 4.64498 38.0205 4.63862L37.9713 4.58939C37.9588 4.6022 37.9491 4.61739 37.9427 4.63406C37.9362 4.65073 37.9333 4.66852 37.9339 4.68637H38.0033ZM38.0205 4.63862C38.0272 4.63155 38.0353 4.62598 38.0443 4.62224C38.0533 4.61851 38.063 4.61671 38.0728 4.61694V4.54752C38.054 4.54711 38.0353 4.5505 38.0179 4.55749C38.0004 4.56447 37.9846 4.57491 37.9713 4.58817L38.0205 4.63862ZM38.0728 4.61694H38.2989V4.54752H38.0728V4.61694ZM38.2989 4.61694C38.3076 4.61637 38.3163 4.61784 38.3242 4.62124C38.3322 4.62465 38.3393 4.62989 38.3449 4.63654L38.3975 4.59099C38.3854 4.57673 38.3702 4.56538 38.353 4.5578C38.3359 4.55021 38.3173 4.54657 38.2986 4.54715L38.2989 4.61694ZM38.3485 4.64021C38.3551 4.64578 38.3603 4.65283 38.3637 4.66079C38.3671 4.66874 38.3686 4.67738 38.368 4.68601H38.4378C38.4383 4.66732 38.4347 4.64876 38.4271 4.63168C38.4195 4.6146 38.4082 4.59943 38.394 4.58731L38.3485 4.64021ZM38.368 4.68601V5.74152H38.4378V4.68601H38.368ZM38.4301 5.76233C38.5087 5.65955 38.6098 5.57618 38.7257 5.51866L38.6952 5.45621C38.5697 5.51833 38.4602 5.6085 38.3752 5.71972L38.4301 5.76233ZM38.7264 5.51866C38.8587 5.45638 39.0039 5.42658 39.15 5.43172V5.36241C38.9929 5.35735 38.8369 5.38966 38.6948 5.4567L38.7264 5.51866ZM39.15 5.43172C39.2715 5.42439 39.3931 5.44474 39.5056 5.49123C39.6181 5.53772 39.7186 5.60915 39.7996 5.70013L39.8522 5.65482C39.7649 5.55643 39.6565 5.479 39.5352 5.42831C39.4138 5.37762 39.2825 5.35497 39.1512 5.36205L39.15 5.43172ZM39.7996 5.70111C39.9648 5.90151 40.049 6.15657 40.0354 6.41597H40.1048C40.1184 6.13958 40.0281 5.86812 39.8515 5.65507L39.7996 5.70111ZM40.0354 6.41597V7.69225H40.1048V6.41597H40.0354ZM40.0354 7.69225C40.0357 7.70201 40.0339 7.71184 40.0302 7.72086C40.0265 7.72989 40.0209 7.73804 40.0138 7.74478L40.0631 7.79388C40.0898 7.76695 40.1043 7.73033 40.1036 7.69237L40.0354 7.69225ZM40.0138 7.74478C40.0075 7.75076 40 7.75537 39.9917 7.75832C39.9835 7.76126 39.9748 7.76249 39.9661 7.76192V7.83123C40.0021 7.83246 40.0371 7.81899 40.0631 7.79388L40.0138 7.74478ZM39.9661 7.76192H39.7398V7.83123H39.966L39.9661 7.76192ZM39.7398 7.76192C39.72 7.76256 39.7006 7.75589 39.6854 7.74319L39.64 7.79584C39.6677 7.8196 39.7031 7.83233 39.7394 7.8316L39.7398 7.76192ZM39.6896 7.74686C39.6769 7.73162 39.6702 7.71222 39.6709 7.69237H39.6011C39.6003 7.72874 39.6128 7.76414 39.6363 7.79192L39.6896 7.74686ZM39.6709 7.69237V6.43752H39.6011V7.69103L39.6709 7.69237ZM39.6709 6.43874C39.6824 6.25013 39.6227 6.06406 39.5036 5.91735L39.4515 5.96364C39.559 6.09756 39.6123 6.26692 39.6009 6.43825L39.6709 6.43874ZM39.504 5.91784C39.4437 5.85332 39.3699 5.80295 39.2878 5.77037C39.2057 5.73778 39.1175 5.72379 39.0293 5.72939V5.79882C39.1075 5.79327 39.1859 5.80517 39.2588 5.83368C39.3318 5.86219 39.3975 5.90658 39.4512 5.96364L39.504 5.91784ZM39.0293 5.72939C38.94 5.72572 38.8508 5.74092 38.7677 5.77401C38.6846 5.80709 38.6094 5.85731 38.547 5.92139L38.5973 5.96939C38.6533 5.9122 38.7207 5.86748 38.7952 5.83815C38.8696 5.80882 38.9494 5.79554 39.0293 5.79919V5.72939ZM38.547 5.92139C38.4224 6.06408 38.3588 6.25 38.37 6.43911H38.4398C38.4288 6.268 38.4856 6.09945 38.5977 5.96976L38.547 5.92139ZM38.37 6.43911V7.69286H38.4398V6.43752L38.37 6.43911ZM38.37 7.69286C38.3702 7.70259 38.3685 7.71227 38.3648 7.72127C38.3611 7.73028 38.3555 7.73841 38.3485 7.74515L38.3975 7.79425C38.4108 7.78095 38.4212 7.76512 38.4282 7.7477C38.4352 7.73028 38.4385 7.71163 38.4382 7.69286H38.37ZM38.3485 7.74515C38.3421 7.75116 38.3346 7.75578 38.3263 7.75873C38.3181 7.76168 38.3093 7.76289 38.3005 7.76229V7.8316C38.3367 7.83282 38.3717 7.81935 38.3976 7.79425L38.3485 7.74515ZM38.3005 7.76229H38.0745V7.8316H38.3005V7.76229ZM41.6647 7.80735C41.5319 7.81364 41.3992 7.79247 41.2749 7.74518C41.1506 7.69788 41.0374 7.62546 40.9424 7.53246L40.8929 7.58119C40.9943 7.68074 41.1152 7.75836 41.2479 7.80921C41.3806 7.86006 41.5223 7.88307 41.6643 7.87678L41.6647 7.80735ZM40.9427 7.53282C40.7549 7.32186 40.6504 7.04963 40.6489 6.76715L40.5794 6.77082C40.5818 7.06986 40.6931 7.35779 40.8924 7.5807L40.9427 7.53282ZM40.6492 6.76801L40.6448 6.61409H40.5754L40.5798 6.76801H40.6492ZM40.6448 6.61617L40.6492 6.46678L40.5794 6.4647L40.575 6.61409L40.6448 6.61617ZM40.6492 6.46801C40.6546 6.18807 40.7605 5.91941 40.9476 5.71115L40.8974 5.66327C40.6991 5.88336 40.5864 6.16731 40.5798 6.46348L40.6492 6.46801ZM40.9473 5.71115C41.0401 5.61757 41.1515 5.54443 41.2743 5.49639C41.397 5.44836 41.5285 5.4265 41.6602 5.43221V5.36278C41.5191 5.35714 41.3784 5.38095 41.2471 5.43269C41.1157 5.48442 40.9967 5.56295 40.8974 5.66327L40.9473 5.71115ZM41.6602 5.43221C41.8008 5.42391 41.9414 5.44742 42.0717 5.501C42.2019 5.55457 42.3184 5.63682 42.4125 5.74164L42.4653 5.69609C42.3647 5.58369 42.2401 5.49537 42.1007 5.43767C41.9613 5.37997 41.8108 5.35438 41.6602 5.36278V5.43221ZM42.4129 5.74164C42.602 5.97822 42.6973 6.27626 42.6804 6.5787H42.7502C42.7675 6.25943 42.6663 5.94501 42.4661 5.69572L42.4129 5.74164ZM42.6804 6.5787V6.65584H42.7502V6.5787H42.6804ZM42.6804 6.65584C42.6807 6.66559 42.6789 6.67529 42.6752 6.68432C42.6716 6.69334 42.666 6.7015 42.659 6.70825L42.708 6.75735C42.7349 6.73041 42.7495 6.6938 42.7486 6.65584H42.6804ZM42.659 6.70825C42.6526 6.71426 42.645 6.71889 42.6368 6.72184C42.6285 6.72479 42.6197 6.726 42.611 6.72539V6.7947C42.6471 6.79592 42.6821 6.78246 42.7081 6.75735L42.659 6.70825ZM42.611 6.72539H41.0447V6.7947H42.611V6.72539ZM41.0098 6.76029V6.80082H41.0796V6.76029H41.0098ZM41.0098 6.80082C41.0143 6.99007 41.0787 7.17302 41.1938 7.32331L41.2485 7.28033C41.1422 7.1415 41.083 6.97243 41.0793 6.79764L41.0098 6.80082ZM41.1941 7.32368C41.2497 7.39341 41.3208 7.44926 41.4016 7.48683C41.4825 7.5244 41.571 7.54266 41.6602 7.54017V7.47074C41.5814 7.47316 41.5031 7.45718 41.4316 7.42407C41.3601 7.39095 41.2972 7.34161 41.2481 7.27997L41.1941 7.32368ZM41.6602 7.54017C41.7853 7.54532 41.9094 7.5152 42.0183 7.45323L41.9817 7.39397C41.8839 7.44895 41.7727 7.47542 41.6606 7.47037L41.6602 7.54017ZM42.0183 7.45323C42.0994 7.40548 42.1704 7.34234 42.2273 7.26735L42.1705 7.2267C42.1188 7.29409 42.0546 7.35088 41.9813 7.39397L42.0183 7.45323ZM42.2265 7.26809C42.2368 7.25405 42.2478 7.24054 42.2596 7.22756C42.2628 7.22397 42.2663 7.22057 42.27 7.21739L42.2733 7.21495L42.2419 7.15286C42.2293 7.16016 42.2179 7.16947 42.2082 7.18041C42.1951 7.19511 42.1826 7.21043 42.1709 7.22633L42.2265 7.26809ZM42.2752 7.21372C42.2941 7.20637 42.3144 7.20356 42.3345 7.20515V7.13584C42.3018 7.13375 42.2691 7.14016 42.2396 7.15446L42.2752 7.21372ZM42.3345 7.20515H42.5566V7.13584H42.3345V7.20515ZM42.5566 7.20515C42.573 7.20433 42.5892 7.20956 42.602 7.21984L42.6467 7.16621C42.6213 7.14549 42.5894 7.13454 42.5566 7.13535V7.20515ZM42.602 7.21984C42.6126 7.22903 42.618 7.2425 42.6167 7.25633H42.6862C42.6867 7.23921 42.6833 7.22219 42.6762 7.20657C42.6692 7.19096 42.6587 7.17715 42.6455 7.16621L42.602 7.21984ZM42.6167 7.25633C42.6035 7.34004 42.5618 7.41662 42.4986 7.47307L42.5505 7.51984C42.6256 7.45094 42.6737 7.35751 42.6862 7.25633H42.6167ZM42.4986 7.47356C42.4042 7.57513 42.2893 7.65551 42.1616 7.70939L42.1909 7.77282C42.3276 7.7147 42.4504 7.62832 42.5513 7.51935L42.4986 7.47356ZM42.162 7.70903C42.0051 7.77624 41.8357 7.80922 41.6651 7.80576V7.87507C41.8456 7.87849 42.0249 7.84347 42.1909 7.77233L42.162 7.70903ZM42.3199 6.44597V6.4325H42.2505V6.44597H42.3199ZM42.3199 6.4325C42.3283 6.23937 42.2638 6.05016 42.1393 5.90229L42.0869 5.9487C42.1997 6.08396 42.2577 6.25666 42.2493 6.43262L42.3199 6.4325ZM42.1397 5.90474C42.0812 5.83523 42.0076 5.78004 41.9244 5.74338C41.8413 5.70673 41.7509 5.68958 41.6602 5.69327V5.76307C41.7407 5.75962 41.821 5.77466 41.8948 5.80706C41.9686 5.83945 42.034 5.88832 42.086 5.94992L42.1397 5.90474ZM41.6602 5.69327C41.5695 5.68967 41.4792 5.70687 41.3961 5.74355C41.3131 5.78022 41.2396 5.8354 41.1811 5.90486L41.2343 5.94943C41.2863 5.88785 41.3517 5.839 41.4255 5.80663C41.4994 5.77426 41.5796 5.75923 41.6602 5.7627V5.69327ZM41.1807 5.90486C41.0623 6.05464 41.0015 6.24188 41.0093 6.43262H41.0791C41.0709 6.25763 41.126 6.08553 41.2343 5.94784L41.1807 5.90486ZM41.0093 6.43262V6.44609H41.0791V6.43262H41.0093ZM41.0442 6.48086H42.2847V6.41143H41.0442V6.48086ZM26.1487 18.4289C26.0881 18.4275 26.0304 18.4028 25.9875 18.3599C25.9446 18.3171 25.9199 18.2593 25.9185 18.1987C25.9165 18.1562 25.9203 18.1136 25.9299 18.0721L28.7824 10.6309C28.806 10.5533 28.8552 10.486 28.9221 10.44C28.9889 10.3941 29.0694 10.3722 29.1503 10.378H29.9322C30.0132 10.3722 30.0937 10.3941 30.1606 10.4401C30.2275 10.486 30.2768 10.5534 30.3004 10.631L33.1425 18.0721L33.1655 18.1987C33.1639 18.2593 33.1391 18.3169 33.0963 18.3597C33.0534 18.4025 32.9958 18.4273 32.9353 18.4289H32.3488C32.2788 18.4333 32.2095 18.413 32.153 18.3714C32.1122 18.3329 32.0807 18.2857 32.0611 18.2333L31.4287 16.5999H27.6562L27.0237 18.2333C27.0023 18.2878 26.9665 18.3355 26.9201 18.3713C26.8676 18.4117 26.8024 18.4321 26.7362 18.4289H26.1487ZM31.0942 15.6114L29.5416 11.5286L27.9895 15.6108L31.0942 15.6114ZM34.4168 11.333C34.3811 11.3369 34.3451 11.3327 34.3112 11.3207C34.2774 11.3088 34.2466 11.2895 34.2213 11.2641C34.1959 11.2388 34.1765 11.2081 34.1645 11.1742C34.1525 11.1404 34.1483 11.1043 34.1521 11.0687V10.4475C34.1502 10.376 34.1748 10.3063 34.2211 10.2518C34.2464 10.2256 34.2769 10.2048 34.3105 10.1909C34.3442 10.1769 34.3804 10.17 34.4168 10.1706H35.1415C35.1778 10.1705 35.2137 10.1775 35.2473 10.1913C35.2809 10.2051 35.3114 10.2254 35.337 10.2511C35.3627 10.2767 35.383 10.3072 35.3969 10.3408C35.4107 10.3744 35.4177 10.4103 35.4176 10.4466V11.0678C35.4188 11.1413 35.3893 11.212 35.3364 11.2631C35.2821 11.3095 35.2125 11.3341 35.1411 11.3322L34.4168 11.333ZM34.509 18.4293C34.4733 18.4331 34.4373 18.4288 34.4034 18.4169C34.3696 18.4049 34.3389 18.3855 34.3135 18.3602C34.2881 18.3348 34.2687 18.3041 34.2568 18.2703C34.2448 18.2365 34.2405 18.2004 34.2443 18.1647V12.7129C34.241 12.6447 34.266 12.5782 34.3133 12.529C34.3387 12.5028 34.3691 12.4821 34.4028 12.4682C34.4364 12.4542 34.4726 12.4473 34.509 12.4478H35.0608C35.1301 12.4505 35.1958 12.4792 35.2448 12.5282C35.2939 12.5772 35.3226 12.6429 35.3254 12.7122V18.1635C35.3266 18.2371 35.2972 18.308 35.2442 18.3592C35.195 18.4064 35.1285 18.4314 35.0603 18.4281L34.509 18.4293ZM37.2945 18.4293C37.2588 18.4331 37.2228 18.4288 37.189 18.4168C37.1552 18.4049 37.1245 18.3855 37.0992 18.3601C37.0738 18.3348 37.0545 18.304 37.0426 18.2702C37.0306 18.2364 37.0264 18.2004 37.0302 18.1647V12.7243C37.0284 12.6529 37.053 12.5834 37.0992 12.529C37.1245 12.5027 37.155 12.482 37.1886 12.468C37.2223 12.4541 37.2585 12.4472 37.295 12.4478H37.8227C37.859 12.4476 37.895 12.4547 37.9286 12.4685C37.9622 12.4823 37.9927 12.5026 38.0183 12.5283C38.044 12.554 38.0643 12.5845 38.0782 12.6181C38.092 12.6516 38.099 12.6876 38.0989 12.7239V13.2298C38.2703 12.9648 38.5109 12.7518 38.7948 12.614C39.0787 12.4761 39.3948 12.4187 39.7091 12.4478H40.1555C40.2247 12.4506 40.2904 12.4793 40.3394 12.5283C40.3884 12.5773 40.4171 12.6429 40.4199 12.7122V13.1836C40.4211 13.2184 40.4145 13.253 40.4004 13.2848C40.3863 13.3167 40.3652 13.3449 40.3387 13.3674C40.3143 13.3908 40.2855 13.409 40.2538 13.4209C40.2222 13.4327 40.1885 13.438 40.1548 13.4365H39.4645C39.285 13.4268 39.1053 13.4545 38.937 13.5179C38.7687 13.5812 38.6155 13.6789 38.4869 13.8047C38.3644 13.935 38.2696 14.0889 38.2083 14.2569C38.1469 14.4249 38.1203 14.6037 38.1301 14.7823V18.1635C38.1313 18.2371 38.1019 18.308 38.0489 18.3592C37.9944 18.4055 37.9247 18.43 37.8532 18.4281L37.2945 18.4293ZM42.2615 18.4293C42.2259 18.433 42.1898 18.4287 42.156 18.4167C42.1223 18.4048 42.0916 18.3854 42.0662 18.36C42.0409 18.3347 42.0216 18.304 42.0096 18.2702C41.9977 18.2364 41.9934 18.2004 41.9971 18.1647V13.3683H41.0195C40.9839 13.372 40.9479 13.3678 40.9141 13.3558C40.8803 13.3438 40.8496 13.3245 40.8243 13.2991C40.799 13.2738 40.7796 13.2431 40.7677 13.2093C40.7557 13.1755 40.7515 13.1395 40.7553 13.1039V12.7129C40.752 12.6447 40.7769 12.5782 40.8242 12.529C40.8495 12.5028 40.8798 12.4821 40.9134 12.4681C40.947 12.4542 40.9831 12.4472 41.0195 12.4478H41.9971V11.8727C41.9971 10.5691 42.6565 9.91752 43.9752 9.91776H44.619C44.6883 9.92042 44.7541 9.94911 44.8031 9.99812C44.8522 10.0471 44.881 10.1128 44.8838 10.1821V10.5731C44.8843 10.6095 44.8774 10.6455 44.8634 10.6791C44.8494 10.7127 44.8287 10.743 44.8026 10.7683C44.7533 10.8156 44.6869 10.8405 44.6187 10.8374H43.9978C43.8638 10.8228 43.7283 10.8402 43.6023 10.8882C43.4763 10.9362 43.3635 11.0134 43.2732 11.1135C43.1168 11.3557 43.0441 11.6424 43.0662 11.9298V12.4476H45.5273V10.1827C45.5242 10.1147 45.549 10.048 45.5963 9.99882C45.6216 9.97265 45.6521 9.95195 45.6857 9.93799C45.7194 9.92403 45.7555 9.9171 45.792 9.91764H46.3197C46.389 9.92027 46.4548 9.94895 46.5039 9.99796C46.553 10.047 46.5818 10.1127 46.5846 10.182V18.1635C46.5858 18.2371 46.5564 18.308 46.5033 18.3592C46.4539 18.4064 46.3873 18.4314 46.319 18.4281H45.7912C45.7555 18.4319 45.7194 18.4277 45.6856 18.4158C45.6517 18.4039 45.621 18.3845 45.5956 18.3591C45.5702 18.3337 45.5508 18.303 45.5388 18.2691C45.5269 18.2353 45.5227 18.1992 45.5265 18.1635V13.3683H43.0653V18.1642C43.0659 18.2007 43.059 18.2368 43.045 18.2705C43.031 18.3042 43.0103 18.3346 42.9841 18.3599C42.9347 18.4073 42.8681 18.4321 42.7998 18.4289L42.2615 18.4293ZM50.7467 18.5443C50.3876 18.5661 50.0278 18.514 49.6896 18.3913C49.3513 18.2686 49.0418 18.0779 48.7802 17.8309C48.3034 17.3144 48.0403 16.6362 48.044 15.9333L48.0323 15.4387L48.044 14.9443C48.0419 14.2429 48.3095 13.5676 48.7915 13.0581C49.9158 12.092 51.5772 12.092 52.7016 13.0581C53.1834 13.5677 53.451 14.243 53.4491 14.9443C53.4566 15.0285 53.4604 15.1933 53.4604 15.4387C53.4604 15.6842 53.4566 15.8491 53.4491 15.9333C53.4524 16.6383 53.1849 17.3176 52.7016 17.8309C52.4423 18.0784 52.1346 18.2695 51.7978 18.3922C51.461 18.5149 51.1025 18.5665 50.7448 18.5438L50.7467 18.5443ZM50.7467 17.6587C50.9583 17.6695 51.1696 17.6339 51.366 17.5544C51.5623 17.475 51.739 17.3536 51.8835 17.1988C52.1912 16.8277 52.3545 16.358 52.3436 15.876C52.3511 15.7995 52.3549 15.6539 52.3549 15.4392C52.3549 15.2245 52.3511 15.0789 52.3436 15.0023C52.3545 14.5204 52.1911 14.0508 51.8835 13.6796C51.739 13.5248 51.5623 13.4034 51.366 13.324C51.1696 13.2445 50.9583 13.2089 50.7467 13.2196C50.5332 13.2093 50.32 13.2451 50.1216 13.3244C49.9231 13.4038 49.7441 13.525 49.5966 13.6796C49.2903 14.0507 49.1314 14.5216 49.15 15.0023L49.1386 15.4392L49.15 15.876C49.1314 16.3568 49.2903 16.8277 49.5966 17.1988C49.7439 17.3532 49.9227 17.4741 50.1207 17.5533C50.3188 17.6326 50.5316 17.6684 50.7448 17.6584L50.7467 17.6587ZM56.3313 18.4302C56.2488 18.4356 56.1672 18.4111 56.1014 18.3611C56.0384 18.3006 55.991 18.2256 55.9634 18.1427L54.3301 12.8063L54.3073 12.6915C54.3063 12.6595 54.312 12.6277 54.3238 12.5979C54.3357 12.5682 54.3536 12.5413 54.3764 12.5188C54.4235 12.4754 54.4849 12.4509 54.549 12.4499H55.0547C55.0885 12.4483 55.1222 12.4536 55.1538 12.4654C55.1854 12.4773 55.2143 12.4954 55.2386 12.5188C55.2858 12.5489 55.3222 12.5934 55.3422 12.6456L56.6191 16.9811L57.9876 12.6915C58.004 12.6277 58.0403 12.5708 58.0912 12.529C58.1202 12.5013 58.1545 12.4798 58.1921 12.4658C58.2296 12.4519 58.2696 12.4457 58.3097 12.4478H58.7006C58.7407 12.4457 58.7808 12.4518 58.8185 12.4657C58.8561 12.4797 58.8905 12.5012 58.9195 12.529C58.9704 12.5706 59.0066 12.6277 59.0229 12.6915L60.3915 16.9811L61.6681 12.6456C61.6824 12.5963 61.7106 12.5525 61.7493 12.5188C61.8038 12.4725 61.8734 12.448 61.9449 12.4499H62.4625C62.524 12.4492 62.5828 12.4743 62.625 12.5188C62.6708 12.5644 62.6958 12.6268 62.694 12.6915L62.6708 12.8063L61.0493 18.1427C61.0217 18.2256 60.9743 18.3006 60.9112 18.3611C60.8408 18.4125 60.7544 18.437 60.6675 18.4302H60.2211C60.1332 18.4392 60.0451 18.4146 59.9746 18.3612C59.9042 18.3079 59.8566 18.2297 59.8415 18.1427L58.5073 14.0256L57.1732 18.1427C57.1523 18.2289 57.1016 18.3051 57.0301 18.3577C56.9586 18.4102 56.8708 18.4359 56.7822 18.4302H56.3313Z" fill="white"/>
</g>
<defs>
<clipPath id="clip0_2014_11408">
<rect width="62.6939" height="24" fill="white"/>
</clipPath>
</defs>
</svg>
