<svg width="125" height="25" viewBox="0 0 200 43" fill="none" xmlns="http://www.w3.org/2000/svg" class="relative flex-shrink-0 flex-grow-0 h-full w-full" preserveAspectRatio="none"><path d="M58.1502 32.647C54.6659 32.647 51.7822 31.4949 49.4999 29.1902C47.2175 26.8859 46.0762 24.0136 46.0762 20.5732C46.0762 17.133 47.2175 14.2606 49.4999 11.9562C51.7822 9.65168 54.6659 8.49941 58.1502 8.49941C60.2452 8.49941 62.1856 8.99572 63.9718 9.98803C65.758 10.9804 67.1585 12.3145 68.1728 13.9907L63.0457 16.9346C62.6048 16.1187 61.9487 15.4736 61.0777 14.9994C60.2063 14.5254 59.2305 14.2884 58.1502 14.2884C56.2975 14.2884 54.8039 14.8672 53.6679 16.025C52.5319 17.1827 51.9644 18.6988 51.9644 20.5732C51.9644 22.4478 52.5319 23.9637 53.6679 25.1216C54.8039 26.2794 56.2975 26.8582 58.1502 26.8582C59.2305 26.8582 60.2063 26.6211 61.0777 26.147C61.9487 25.6729 62.6048 25.0169 63.0457 24.1789L68.1728 27.1559C67.1585 28.8541 65.764 30.1937 63.9881 31.1751C62.2132 32.1563 60.2669 32.647 58.1502 32.647ZM80.4452 15.1483C82.2314 15.1483 83.6925 15.7604 84.8285 16.9841C85.964 18.2081 86.5314 19.9669 86.5314 22.2604V32.1509H81.0408V22.9549C81.0408 22.0949 80.8147 21.4443 80.3625 21.0033C79.9103 20.5622 79.3093 20.3417 78.56 20.3417C77.6994 20.3417 77.0324 20.6009 76.5585 21.1191C76.0842 21.6373 75.8472 22.3816 75.8472 23.3518V32.1509H70.3561V8.99572H75.8472V17.2654C76.8393 15.8539 78.3723 15.1483 80.4452 15.1483ZM94.9999 18.6878C95.3088 17.6071 95.926 16.7693 96.8526 16.1737C97.7787 15.5784 98.8152 15.2807 99.962 15.2807V21.3671C98.7048 21.1688 97.5635 21.4002 96.5383 22.0618C95.5127 22.7234 94.9999 23.804 94.9999 25.3036V32.1509H89.5088V15.6115H94.9999V18.6878ZM109.654 32.6139C107.206 32.6139 105.122 31.7705 103.402 30.0835C101.682 28.3965 100.822 26.3291 100.822 23.8812C100.822 21.4334 101.682 19.3659 103.402 17.6789C105.122 15.9919 107.206 15.1483 109.654 15.1483C112.124 15.1483 114.213 15.9919 115.923 17.6789C117.631 19.3659 118.486 21.4334 118.486 23.8812C118.486 26.3291 117.631 28.3965 115.923 30.0835C114.213 31.7705 112.124 32.6139 109.654 32.6139ZM109.654 27.3214C110.624 27.3214 111.424 27.0016 112.052 26.3622C112.681 25.7225 112.995 24.8957 112.995 23.8812C112.995 22.8668 112.681 22.0397 112.052 21.4002C111.424 20.7608 110.624 20.441 109.654 20.441C108.706 20.441 107.917 20.7608 107.289 21.4002C106.661 22.0397 106.346 22.8668 106.346 23.8812C106.346 24.8957 106.661 25.7225 107.289 26.3622C107.917 27.0016 108.706 27.3214 109.654 27.3214ZM139.888 15.1483C141.807 15.1483 143.323 15.7604 144.436 16.9841C145.55 18.2081 146.107 19.8895 146.107 22.0287V32.1509H140.583V22.6572C140.583 21.1135 139.899 20.3417 138.532 20.3417C137.782 20.3417 137.214 20.59 136.828 21.086C136.442 21.5821 136.249 22.2604 136.249 23.1203V32.1509H130.758V22.6572C130.758 21.1135 130.063 20.3417 128.674 20.3417C127.925 20.3417 127.357 20.59 126.97 21.086C126.585 21.5821 126.392 22.2604 126.392 23.1203V32.1509H120.901V15.6115H126.392V17.1661C127.406 15.821 128.895 15.1483 130.858 15.1483C132.754 15.1483 134.165 15.8539 135.092 17.2654C136.238 15.8539 137.837 15.1483 139.888 15.1483ZM153.947 25.899C154.498 27.2442 155.733 27.9167 157.651 27.9167C158.842 27.9167 159.846 27.5307 160.662 26.7591L164.631 29.5377C162.999 31.5886 160.629 32.6139 157.519 32.6139C154.719 32.6139 152.474 31.7926 150.788 30.1497C149.1 28.5068 148.257 26.4283 148.257 23.9143C148.257 21.4222 149.084 19.3382 150.738 17.6624C152.392 15.9864 154.498 15.1483 157.056 15.1483C159.526 15.1483 161.566 15.9752 163.175 17.6293C164.785 19.2832 165.59 21.3562 165.59 23.8481C165.59 24.5759 165.513 25.2596 165.359 25.899H153.947ZM153.88 22.0949H160.231C159.791 20.5513 158.754 19.7795 157.122 19.7795C155.424 19.7795 154.343 20.5513 153.88 22.0949ZM174.356 27.0568H180.542V32.1509H167.013V28.38L172.867 20.7056H167.343V15.6115H180.211V19.3825L174.356 27.0568ZM193.773 15.6115H199.86L194.203 31.8863C193.322 34.3782 192.075 36.1755 190.465 37.2781C188.856 38.3807 186.772 38.877 184.214 38.7667V33.6064C185.383 33.6064 186.264 33.4631 186.86 33.1764C187.456 32.8898 187.941 32.3714 188.315 31.6217L181.699 15.6115H187.853L191.194 25.2043L193.773 15.6115Z" fill="white"></path><path fill-rule="evenodd" clip-rule="evenodd" d="M11.3826 17.3032L24.0844 17.3415C26.4168 17.8601 24.7975 20.5238 24.3367 21.4879C23.841 22.5247 22.597 24.8317 22.3449 25.793C23.0553 27.1775 26.793 32.2397 27.6661 33.9155L29.629 29.819C30.305 28.4058 30.9433 26.9932 31.6137 25.5856C33.0665 22.5349 34.5653 19.8126 33.2666 15.8231C32.3153 12.9003 30.0075 10.6285 27.1251 9.6608C24.4756 8.77119 18.3576 9.20745 15.1383 9.1474L6.16016 9.16819C6.56306 10.0432 10.7939 16.0923 11.3826 17.3032Z" fill="#4380FF"></path><path fill-rule="evenodd" clip-rule="evenodd" d="M18.5117 33.9011L27.666 33.9161C26.793 32.2403 23.0553 27.1781 22.3448 25.7936C20.5045 25.8523 10.7019 26.033 9.57104 25.7451C8.82114 25.5542 8.19385 24.7328 8.39759 23.8097C8.52267 23.2419 10.8959 18.507 11.3825 17.3038C10.7939 16.0929 6.56301 10.0438 6.16011 9.16878L2.21669 17.4976C0.832382 20.566 -0.832874 23.132 0.541239 27.2443C1.51549 30.1596 3.70665 32.4192 6.67272 33.4203C9.22272 34.2808 15.4306 33.8357 18.5117 33.9011Z" fill="#11DEFF"></path><path fill-rule="evenodd" clip-rule="evenodd" d="M27.666 33.916L18.5117 33.901C18.7865 34.4906 23.6177 41.7066 23.9198 41.9512L27.666 33.916Z" fill="#4373FF"></path><path fill-rule="evenodd" clip-rule="evenodd" d="M6.16016 9.16846L15.1383 9.14767C14.9153 8.64486 14.2295 7.6856 13.8736 7.15762L9.89109 1.27358C9.53316 1.69038 6.47764 8.30294 6.16016 9.16846Z" fill="#07E9FF"></path></svg>