<svg width="36" height="618" viewBox="0 0 36 618" fill="none" xmlns="http://www.w3.org/2000/svg">
<path fill-rule="evenodd" clip-rule="evenodd" d="M32.3185 519.635C-102.325 654.279 -325.332 649.77 -469.984 505.118C-614.637 360.466 -619.145 137.458 -484.502 2.81503C-463.51 -18.1769 -330.798 80.5 -188.082 223.216C-45.3664 365.932 53.3105 498.643 32.3185 519.635ZM-116.538 595.76C-233.07 628.177 -366.529 595.903 -463.649 498.783C-560.77 401.663 -593.044 268.204 -560.626 151.671C-579.408 260.116 -539.813 384.61 -444.645 479.778C-349.476 574.947 -224.983 614.541 -116.538 595.76ZM-438.31 473.444C-338.764 572.99 -207.078 609.88 -97.0816 581.953C-199.626 596.047 -322.322 551.423 -419.305 454.439C-516.289 357.455 -560.913 234.76 -546.819 132.215C-574.747 242.212 -537.856 373.897 -438.31 473.444ZM-77.9116 568.844C-180.795 592.243 -310.659 550.415 -412.97 448.104C-515.282 345.793 -557.109 215.928 -533.71 113.045C-536.29 139.612 -534.351 168.043 -528.123 197.322C-511.79 274.105 -465.922 357.143 -393.966 429.099C-322.01 501.055 -238.971 546.923 -162.188 563.257C-132.909 569.485 -104.478 571.424 -77.9116 568.844ZM-160.879 554.171C-124.8 561.846 -90.3803 562.766 -59.4567 556.683C-85.7475 557.952 -114.565 553.994 -144.617 545.252C-216.704 524.282 -296.778 475.608 -368.626 403.76C-440.475 331.911 -489.148 251.838 -510.118 179.751C-518.86 149.699 -522.818 120.881 -521.549 94.5902C-527.632 125.514 -526.712 159.934 -519.038 196.012C-503.157 270.667 -458.391 352.004 -387.631 422.765C-316.871 493.525 -235.534 538.291 -160.879 554.171ZM-42.2748 545.554C-71.7815 550.2 -105.923 547.014 -142.614 536.341C-212.794 515.926 -291.424 468.292 -362.291 397.425C-433.159 326.558 -480.792 247.928 -501.207 177.748C-511.881 141.056 -515.066 106.915 -510.42 77.4082C-510.038 102.91 -503.653 131.726 -492.075 162.207C-466.489 229.566 -415.034 306.673 -343.287 378.42C-271.54 450.167 -194.433 501.622 -127.073 527.209C-96.5922 538.787 -67.7761 545.172 -42.2748 545.554ZM-124.323 518.548C-87.0904 532.691 -53.6323 538.477 -26.2226 535.537C-50.2106 533.2 -78.5865 524.045 -109.551 509.121C-172.156 478.948 -246.296 424.732 -317.947 353.081C-389.599 281.429 -443.814 207.29 -473.987 144.685C-488.911 113.72 -498.067 85.3442 -500.404 61.3563C-503.344 88.7659 -497.557 122.224 -483.415 159.456C-458.445 225.193 -407.921 301.116 -336.952 372.086C-265.983 443.055 -190.059 493.578 -124.323 518.548ZM-11.4155 526.771C-15.7802 526.94 -20.4043 526.802 -25.2807 526.354C-47.8719 524.278 -75.3328 515.586 -106.009 500.801C-167.329 471.247 -240.548 417.81 -311.612 346.746C-382.677 275.682 -436.113 202.463 -465.667 141.143C-480.452 110.466 -489.144 83.0055 -491.22 60.4143C-491.668 55.5379 -491.806 50.9137 -491.637 46.5492C-491.293 48.1742 -490.908 49.8224 -490.483 51.4916C-485.135 72.4905 -473.192 98.2898 -455.849 127.175C-421.126 185.008 -364.17 256.179 -292.608 327.741C-221.045 399.304 -149.874 456.26 -92.0416 490.983C-63.1562 508.326 -37.357 520.269 -16.3581 525.616C-14.6888 526.041 -13.0406 526.427 -11.4155 526.771ZM-14.6733 516.619C-5.09132 519.059 2.93831 519.909 9.47742 519.349C-38.6719 502.17 -148.081 415.255 -264.101 299.234C-380.121 183.214 -467.037 73.8055 -484.215 25.6562C-484.775 32.1953 -483.925 40.2249 -481.485 49.8068C-476.475 69.4808 -465.076 94.3254 -447.97 122.817C-413.794 179.738 -357.427 250.253 -286.273 321.407C-215.119 392.56 -144.604 448.928 -87.6833 483.103C-59.1918 500.21 -34.3472 511.609 -14.6733 516.619ZM-472.453 9.57446C-476.099 8.9779 -477.401 9.47752 -477.69 9.62642C-477.839 9.91549 -478.339 11.2177 -477.742 14.864C-476.993 19.4441 -474.761 25.9209 -470.676 34.3605C-462.557 51.1374 -448.171 73.5559 -428.374 100.181C-388.871 153.31 -328.882 221.783 -257.766 292.9C-186.65 364.016 -118.176 424.004 -65.0479 463.507C-38.4223 483.305 -16.0038 497.691 0.773032 505.81C9.2127 509.894 15.6895 512.127 20.2695 512.876C23.9159 513.472 25.2181 512.973 25.5072 512.824C25.656 512.535 26.1556 511.233 25.5591 507.586C24.8098 503.006 22.5776 496.529 18.4932 488.09C10.3741 471.313 -4.01213 448.894 -23.8094 422.269C-63.3124 369.141 -123.301 300.667 -194.417 229.551C-265.533 158.435 -334.007 98.4461 -387.135 58.9429C-413.761 39.1457 -436.179 24.7595 -452.956 16.6404C-461.396 12.5561 -467.873 10.3238 -472.453 9.57446Z" fill="url(#paint0_linear_2014_17476)"/>
<defs>
<linearGradient id="paint0_linear_2014_17476" x1="-511.508" y1="553.331" x2="-174.239" y2="210.288" gradientUnits="userSpaceOnUse">
<stop stop-color="white"/>
<stop offset="1" stop-color="white" stop-opacity="0"/>
</linearGradient>
</defs>
</svg>
