<svg width="142" height="138" viewBox="0 0 142 138" fill="none" xmlns="http://www.w3.org/2000/svg">
<path opacity="0.2" d="M44.4359 110.324L85.5609 86.5812V113.716L52.8812 132.582C46.2537 136.411 38.5603 137.978 30.9634 137.047C23.3665 136.116 16.2789 132.738 10.7716 127.423C5.26425 122.108 1.63639 115.145 0.436165 107.586C-0.764059 100.027 0.528566 92.2831 4.11873 85.5237C6.37984 87.8432 8.94986 89.8399 11.7562 91.4575L44.4359 110.324ZM124.116 61.3481L91.4359 42.482L67.9359 56.0533L109.061 79.7956V117.528C109.057 120.756 108.61 123.968 107.732 127.075C115.371 126.795 122.713 124.04 128.65 119.224C134.587 114.408 138.798 107.792 140.647 100.374C142.496 92.9564 141.883 85.1385 138.902 78.0992C135.92 71.0599 130.73 65.1807 124.116 61.3481ZM50.3109 39.0892L82.9906 20.2231C85.7908 18.5918 88.8034 17.3561 91.9426 16.5512C87.882 10.0621 81.8194 5.07117 74.6711 2.33275C67.5228 -0.405676 59.6773 -0.742748 52.3205 1.37248C44.9637 3.4877 38.4953 7.94026 33.8931 14.0572C29.2909 20.1741 26.8049 27.6229 26.8109 35.2778V73.01L50.3109 86.5812V39.0892Z" fill="#E8E24D"/>
</svg>
