<svg width="150" height="177" viewBox="0 0 150 177" fill="none" xmlns="http://www.w3.org/2000/svg">
<g clip-path="url(#clip0_2014_6766)">
<path d="M1.32609 49.2865C2.05828 49.2865 2.65218 48.6929 2.65218 47.9604C2.65218 47.2282 2.05828 46.6343 1.32609 46.6343C0.593578 46.6343 0 47.2282 0 47.9604C0 48.6929 0.593578 49.2865 1.32609 49.2865Z" fill="#4DC3E8" fill-opacity="0.6"/>
<path d="M30.6894 49.066C31.4219 49.066 32.0155 48.4725 32.0155 47.7399C32.0155 47.0074 31.4219 46.4138 30.6894 46.4138C29.9572 46.4138 29.3633 47.0074 29.3633 47.7399C29.3633 48.4725 29.9572 49.066 30.6894 49.066Z" fill="#4DC3E8" fill-opacity="0.6"/>
<path d="M16.0077 57.7172C16.7402 57.7172 17.3338 57.1233 17.3338 56.3911C17.3338 55.6586 16.7402 55.065 16.0077 55.065C15.2755 55.065 14.6816 55.6586 14.6816 56.3911C14.6816 57.1233 15.2755 57.7172 16.0077 57.7172Z" fill="#4DC3E8" fill-opacity="0.6"/>
<path d="M1.32609 66.3998C2.05828 66.3998 2.65218 65.8059 2.65218 65.0737C2.65218 64.3412 2.05828 63.7476 1.32609 63.7476C0.593578 63.7476 0 64.3412 0 65.0737C0 65.8059 0.593578 66.3998 1.32609 66.3998Z" fill="#4DC3E8" fill-opacity="0.6"/>
<path d="M74.7352 41.5513C76.2523 41.5513 77.4821 40.3212 77.4821 38.8044C77.4821 37.2873 76.2523 36.0575 74.7352 36.0575C73.2184 36.0575 71.9883 37.2873 71.9883 38.8044C71.9883 40.3212 73.2184 41.5513 74.7352 41.5513Z" fill="#4DC3E8" fill-opacity="0.6"/>
<path d="M60.0535 50.2341C61.5707 50.2341 62.8004 49.004 62.8004 47.4872C62.8004 45.9701 61.5707 44.7403 60.0535 44.7403C58.5367 44.7403 57.3066 45.9701 57.3066 47.4872C57.3066 49.004 58.5367 50.2341 60.0535 50.2341Z" fill="#4DC3E8" fill-opacity="0.6"/>
<path d="M45.3709 58.9168C46.888 58.9168 48.1178 57.6867 48.1178 56.1699C48.1178 54.6528 46.888 53.423 45.3709 53.423C43.8538 53.423 42.624 54.6528 42.624 56.1699C42.624 57.6867 43.8538 58.9168 45.3709 58.9168Z" fill="#4DC3E8" fill-opacity="0.6"/>
<path d="M30.6903 67.5996C32.2074 67.5996 33.4372 66.3695 33.4372 64.8527C33.4372 63.3356 32.2074 62.1058 30.6903 62.1058C29.1731 62.1058 27.9434 63.3356 27.9434 64.8527C27.9434 66.3695 29.1731 67.5996 30.6903 67.5996Z" fill="#4DC3E8" fill-opacity="0.6"/>
<path d="M16.0086 76.2506C17.5257 76.2506 18.7555 75.0205 18.7555 73.5037C18.7555 71.9866 17.5257 70.7568 16.0086 70.7568C14.4915 70.7568 13.2617 71.9866 13.2617 73.5037C13.2617 75.0205 14.4915 76.2506 16.0086 76.2506Z" fill="#4DC3E8" fill-opacity="0.6"/>
<path d="M1.32609 83.5126C2.05828 83.5126 2.65218 82.919 2.65218 82.1865C2.65218 81.454 2.05828 80.8604 1.32609 80.8604C0.593578 80.8604 0 81.454 0 82.1865C0 82.919 0.593578 83.5126 1.32609 83.5126Z" fill="#4DC3E8" fill-opacity="0.6"/>
<path d="M74.735 61.4114C77.7689 61.4114 80.2288 58.9518 80.2288 55.9176C80.2288 52.8834 77.7689 50.4238 74.735 50.4238C71.7008 50.4238 69.2412 52.8834 69.2412 55.9176C69.2412 58.9518 71.7008 61.4114 74.735 61.4114Z" fill="#4DC3E8" fill-opacity="0.6"/>
<path d="M60.0544 70.094C63.0883 70.094 65.5482 67.6344 65.5482 64.6002C65.5482 61.566 63.0883 59.1064 60.0544 59.1064C57.0201 59.1064 54.5605 61.566 54.5605 64.6002C54.5605 67.6344 57.0201 70.094 60.0544 70.094Z" fill="#4DC3E8" fill-opacity="0.6"/>
<path d="M45.3717 78.7768C48.406 78.7768 50.8655 76.3172 50.8655 73.283C50.8655 70.2488 48.406 67.7892 45.3717 67.7892C42.3378 67.7892 39.8779 70.2488 39.8779 73.283C39.8779 76.3172 42.3378 78.7768 45.3717 78.7768Z" fill="#4DC3E8" fill-opacity="0.6"/>
<path d="M30.6891 87.4281C33.723 87.4281 36.1829 84.9685 36.1829 81.9343C36.1829 78.9001 33.723 76.4405 30.6891 76.4405C27.6549 76.4405 25.1953 78.9001 25.1953 81.9343C25.1953 84.9685 27.6549 87.4281 30.6891 87.4281Z" fill="#4DC3E8" fill-opacity="0.6"/>
<path d="M16.0086 93.3634C17.5257 93.3634 18.7555 92.1337 18.7555 90.6165C18.7555 89.0994 17.5257 87.8696 16.0086 87.8696C14.4915 87.8696 13.2617 89.0994 13.2617 90.6165C13.2617 92.1337 14.4915 93.3634 16.0086 93.3634Z" fill="#4DC3E8" fill-opacity="0.6"/>
<path d="M1.32609 100.625C2.05828 100.625 2.65218 100.032 2.65218 99.299C2.65218 98.5669 2.05828 97.973 1.32609 97.973C0.593578 97.973 0 98.5669 0 99.299C0 100.032 0.593578 100.625 1.32609 100.625Z" fill="#4DC3E8" fill-opacity="0.6"/>
<path d="M74.735 78.524C77.7689 78.524 80.2288 76.0644 80.2288 73.0302C80.2288 69.9963 77.7689 67.5363 74.735 67.5363C71.7008 67.5363 69.2412 69.9963 69.2412 73.0302C69.2412 76.0644 71.7008 78.524 74.735 78.524Z" fill="#4DC3E8" fill-opacity="0.6"/>
<path d="M60.0544 87.2068C63.0883 87.2068 65.5482 84.7472 65.5482 81.713C65.5482 78.6791 63.0883 76.2192 60.0544 76.2192C57.0201 76.2192 54.5605 78.6791 54.5605 81.713C54.5605 84.7472 57.0201 87.2068 60.0544 87.2068Z" fill="#4DC3E8" fill-opacity="0.6"/>
<path d="M45.3717 95.8579C48.406 95.8579 50.8655 93.3983 50.8655 90.3641C50.8655 87.3302 48.406 84.8703 45.3717 84.8703C42.3378 84.8703 39.8779 87.3302 39.8779 90.3641C39.8779 93.3983 42.3378 95.8579 45.3717 95.8579Z" fill="#4DC3E8" fill-opacity="0.6"/>
<path d="M30.6891 104.541C33.723 104.541 36.1829 102.081 36.1829 99.0468C36.1829 96.0129 33.723 93.553 30.6891 93.553C27.6549 93.553 25.1953 96.0129 25.1953 99.0468C25.1953 102.081 27.6549 104.541 30.6891 104.541Z" fill="#4DC3E8" fill-opacity="0.6"/>
<path d="M16.0086 110.476C17.5257 110.476 18.7555 109.246 18.7555 107.729C18.7555 106.212 17.5257 104.982 16.0086 104.982C14.4915 104.982 13.2617 106.212 13.2617 107.729C13.2617 109.246 14.4915 110.476 16.0086 110.476Z" fill="#4DC3E8" fill-opacity="0.6"/>
<path d="M1.32609 117.739C2.05828 117.739 2.65218 117.145 2.65218 116.413C2.65218 115.68 2.05828 115.086 1.32609 115.086C0.593578 115.086 0 115.68 0 116.413C0 117.145 0.593578 117.739 1.32609 117.739Z" fill="#4DC3E8" fill-opacity="0.6"/>
<path d="M74.7352 92.8901C76.2523 92.8901 77.4821 91.6604 77.4821 90.1432C77.4821 88.6261 76.2523 87.3963 74.7352 87.3963C73.2184 87.3963 71.9883 88.6261 71.9883 90.1432C71.9883 91.6604 73.2184 92.8901 74.7352 92.8901Z" fill="#4DC3E8" fill-opacity="0.6"/>
<path d="M60.0535 101.541C61.5707 101.541 62.8004 100.311 62.8004 98.7943C62.8004 97.2772 61.5707 96.0474 60.0535 96.0474C58.5367 96.0474 57.3066 97.2772 57.3066 98.7943C57.3066 100.311 58.5367 101.541 60.0535 101.541Z" fill="#4DC3E8" fill-opacity="0.6"/>
<path d="M45.3709 110.224C46.888 110.224 48.1178 108.994 48.1178 107.477C48.1178 105.96 46.888 104.73 45.3709 104.73C43.8538 104.73 42.624 105.96 42.624 107.477C42.624 108.994 43.8538 110.224 45.3709 110.224Z" fill="#4DC3E8" fill-opacity="0.6"/>
<path d="M30.6903 118.907C32.2074 118.907 33.4372 117.677 33.4372 116.16C33.4372 114.643 32.2074 113.413 30.6903 113.413C29.1731 113.413 27.9434 114.643 27.9434 116.16C27.9434 117.677 29.1731 118.907 30.6903 118.907Z" fill="#4DC3E8" fill-opacity="0.6"/>
<path d="M16.0077 126.168C16.7402 126.168 17.3338 125.575 17.3338 124.842C17.3338 124.11 16.7402 123.516 16.0077 123.516C15.2755 123.516 14.6816 124.11 14.6816 124.842C14.6816 125.575 15.2755 126.168 16.0077 126.168Z" fill="#4DC3E8" fill-opacity="0.6"/>
<path d="M1.32609 134.851C2.05828 134.851 2.65218 134.258 2.65218 133.525C2.65218 132.793 2.05828 132.199 1.32609 132.199C0.593578 132.199 0 132.793 0 133.525C0 134.258 0.593578 134.851 1.32609 134.851Z" fill="#4DC3E8" fill-opacity="0.6"/>
<path d="M74.7343 108.55C75.4665 108.55 76.0604 107.957 76.0604 107.224C76.0604 106.492 75.4665 105.898 74.7343 105.898C74.0018 105.898 73.4082 106.492 73.4082 107.224C73.4082 107.957 74.0018 108.55 74.7343 108.55Z" fill="#4DC3E8" fill-opacity="0.6"/>
<path d="M60.0536 117.233C60.7861 117.233 61.3797 116.639 61.3797 115.907C61.3797 115.175 60.7861 114.581 60.0536 114.581C59.3214 114.581 58.7275 115.175 58.7275 115.907C58.7275 116.639 59.3214 117.233 60.0536 117.233Z" fill="#4DC3E8" fill-opacity="0.6"/>
<path d="M45.372 125.916C46.1045 125.916 46.6981 125.322 46.6981 124.59C46.6981 123.858 46.1045 123.264 45.372 123.264C44.6395 123.264 44.0459 123.858 44.0459 124.59C44.0459 125.322 44.6395 125.916 45.372 125.916Z" fill="#4DC3E8" fill-opacity="0.6"/>
<path d="M30.6894 134.598C31.4219 134.598 32.0155 134.005 32.0155 133.272C32.0155 132.54 31.4219 131.946 30.6894 131.946C29.9572 131.946 29.3633 132.54 29.3633 133.272C29.3633 134.005 29.9572 134.598 30.6894 134.598Z" fill="#4DC3E8" fill-opacity="0.6"/>
<path d="M16.0077 143.281C16.7402 143.281 17.3338 142.688 17.3338 141.955C17.3338 141.223 16.7402 140.629 16.0077 140.629C15.2755 140.629 14.6816 141.223 14.6816 141.955C14.6816 142.688 15.2755 143.281 16.0077 143.281Z" fill="#4DC3E8" fill-opacity="0.6"/>
<path d="M74.7343 125.664C75.4665 125.664 76.0604 125.07 76.0604 124.337C76.0604 123.605 75.4665 123.011 74.7343 123.011C74.0018 123.011 73.4082 123.605 73.4082 124.337C73.4082 125.07 74.0018 125.664 74.7343 125.664Z" fill="#4DC3E8" fill-opacity="0.6"/>
<path d="M60.0536 134.346C60.7861 134.346 61.3797 133.753 61.3797 133.02C61.3797 132.288 60.7861 131.694 60.0536 131.694C59.3214 131.694 58.7275 132.288 58.7275 133.02C58.7275 133.753 59.3214 134.346 60.0536 134.346Z" fill="#4DC3E8" fill-opacity="0.6"/>
<path d="M45.372 143.029C46.1045 143.029 46.6981 142.435 46.6981 141.703C46.6981 140.97 46.1045 140.377 45.372 140.377C44.6395 140.377 44.0459 140.97 44.0459 141.703C44.0459 142.435 44.6395 143.029 45.372 143.029Z" fill="#4DC3E8" fill-opacity="0.6"/>
<path d="M30.6894 151.712C31.4219 151.712 32.0155 151.118 32.0155 150.386C32.0155 149.653 31.4219 149.06 30.6894 149.06C29.9572 149.06 29.3633 149.653 29.3633 150.386C29.3633 151.118 29.9572 151.712 30.6894 151.712Z" fill="#4DC3E8" fill-opacity="0.6"/>
<path d="M74.7343 142.776C75.4665 142.776 76.0604 142.183 76.0604 141.45C76.0604 140.718 75.4665 140.124 74.7343 140.124C74.0018 140.124 73.4082 140.718 73.4082 141.45C73.4082 142.183 74.0018 142.776 74.7343 142.776Z" fill="#4DC3E8" fill-opacity="0.6"/>
<path d="M60.0536 151.459C60.7861 151.459 61.3797 150.865 61.3797 150.133C61.3797 149.401 60.7861 148.807 60.0536 148.807C59.3214 148.807 58.7275 149.401 58.7275 150.133C58.7275 150.865 59.3214 151.459 60.0536 151.459Z" fill="#4DC3E8" fill-opacity="0.6"/>
<path d="M45.372 160.142C46.1045 160.142 46.6981 159.548 46.6981 158.816C46.6981 158.083 46.1045 157.489 45.372 157.489C44.6395 157.489 44.0459 158.083 44.0459 158.816C44.0459 159.548 44.6395 160.142 45.372 160.142Z" fill="#4DC3E8" fill-opacity="0.6"/>
<path d="M74.7343 159.889C75.4665 159.889 76.0604 159.295 76.0604 158.563C76.0604 157.831 75.4665 157.237 74.7343 157.237C74.0018 157.237 73.4082 157.831 73.4082 158.563C73.4082 159.295 74.0018 159.889 74.7343 159.889Z" fill="#4DC3E8" fill-opacity="0.6"/>
<path d="M60.0536 168.572C60.7861 168.572 61.3797 167.978 61.3797 167.245C61.3797 166.513 60.7861 165.919 60.0536 165.919C59.3214 165.919 58.7275 166.513 58.7275 167.245C58.7275 167.978 59.3214 168.572 60.0536 168.572Z" fill="#4DC3E8" fill-opacity="0.6"/>
<path d="M74.7343 177.002C75.4665 177.002 76.0604 176.409 76.0604 175.676C76.0604 174.944 75.4665 174.35 74.7343 174.35C74.0018 174.35 73.4082 174.944 73.4082 175.676C73.4082 176.409 74.0018 177.002 74.7343 177.002Z" fill="#4DC3E8" fill-opacity="0.6"/>
<path d="M147.954 49.2865C148.687 49.2865 149.28 48.6929 149.28 47.9604C149.28 47.2282 148.687 46.6343 147.954 46.6343C147.222 46.6343 146.628 47.2282 146.628 47.9604C146.628 48.6929 147.222 49.2865 147.954 49.2865Z" fill="#4DC3E8" fill-opacity="0.6"/>
<path d="M118.56 49.066C119.292 49.066 119.886 48.4725 119.886 47.7399C119.886 47.0074 119.292 46.4138 118.56 46.4138C117.827 46.4138 117.233 47.0074 117.233 47.7399C117.233 48.4725 117.827 49.066 118.56 49.066Z" fill="#4DC3E8" fill-opacity="0.6"/>
<path d="M133.273 57.7172C134.005 57.7172 134.598 57.1233 134.598 56.3911C134.598 55.6586 134.005 55.065 133.273 55.065C132.54 55.065 131.946 55.6586 131.946 56.3911C131.946 57.1233 132.54 57.7172 133.273 57.7172Z" fill="#4DC3E8" fill-opacity="0.6"/>
<path d="M147.954 66.3998C148.687 66.3998 149.28 65.8059 149.28 65.0737C149.28 64.3412 148.687 63.7476 147.954 63.7476C147.222 63.7476 146.628 64.3412 146.628 65.0737C146.628 65.8059 147.222 66.3998 147.954 66.3998Z" fill="#4DC3E8" fill-opacity="0.6"/>
<path d="M74.5135 41.5513C76.0306 41.5513 77.2604 40.3212 77.2604 38.8044C77.2604 37.2873 76.0306 36.0575 74.5135 36.0575C72.9964 36.0575 71.7666 37.2873 71.7666 38.8044C71.7666 40.3212 72.9964 41.5513 74.5135 41.5513Z" fill="#4DC3E8" fill-opacity="0.6"/>
<path d="M89.1964 50.2341C90.7132 50.2341 91.943 49.004 91.943 47.4872C91.943 45.9701 90.7132 44.7403 89.1964 44.7403C87.6793 44.7403 86.4492 45.9701 86.4492 47.4872C86.4492 49.004 87.6793 50.2341 89.1964 50.2341Z" fill="#4DC3E8" fill-opacity="0.6"/>
<path d="M103.878 58.9168C105.395 58.9168 106.625 57.6867 106.625 56.1699C106.625 54.6528 105.395 53.423 103.878 53.423C102.361 53.423 101.131 54.6528 101.131 56.1699C101.131 57.6867 102.361 58.9168 103.878 58.9168Z" fill="#4DC3E8" fill-opacity="0.6"/>
<path d="M118.559 67.5996C120.077 67.5996 121.306 66.3695 121.306 64.8527C121.306 63.3356 120.077 62.1058 118.559 62.1058C117.042 62.1058 115.812 63.3356 115.812 64.8527C115.812 66.3695 117.042 67.5996 118.559 67.5996Z" fill="#4DC3E8" fill-opacity="0.6"/>
<path d="M133.272 76.2506C134.789 76.2506 136.019 75.0205 136.019 73.5037C136.019 71.9866 134.789 70.7568 133.272 70.7568C131.755 70.7568 130.525 71.9866 130.525 73.5037C130.525 75.0205 131.755 76.2506 133.272 76.2506Z" fill="#4DC3E8" fill-opacity="0.6"/>
<path d="M147.954 83.5126C148.687 83.5126 149.28 82.919 149.28 82.1865C149.28 81.454 148.687 80.8604 147.954 80.8604C147.222 80.8604 146.628 81.454 146.628 82.1865C146.628 82.919 147.222 83.5126 147.954 83.5126Z" fill="#4DC3E8" fill-opacity="0.6"/>
<path d="M74.5143 61.4114C77.5485 61.4114 80.0081 58.9518 80.0081 55.9176C80.0081 52.8834 77.5485 50.4238 74.5143 50.4238C71.4801 50.4238 69.0205 52.8834 69.0205 55.9176C69.0205 58.9518 71.4801 61.4114 74.5143 61.4114Z" fill="#4DC3E8" fill-opacity="0.6"/>
<path d="M89.1969 70.094C92.2311 70.094 94.6908 67.6344 94.6908 64.6002C94.6908 61.566 92.2311 59.1064 89.1969 59.1064C86.1627 59.1064 83.7031 61.566 83.7031 64.6002C83.7031 67.6344 86.1627 70.094 89.1969 70.094Z" fill="#4DC3E8" fill-opacity="0.6"/>
<path d="M103.878 78.7768C106.912 78.7768 109.371 76.3172 109.371 73.283C109.371 70.2488 106.912 67.7892 103.878 67.7892C100.843 67.7892 98.3838 70.2488 98.3838 73.283C98.3838 76.3172 100.843 78.7768 103.878 78.7768Z" fill="#4DC3E8" fill-opacity="0.6"/>
<path d="M118.559 87.4281C121.593 87.4281 124.053 84.9685 124.053 81.9343C124.053 78.9001 121.593 76.4405 118.559 76.4405C115.525 76.4405 113.065 78.9001 113.065 81.9343C113.065 84.9685 115.525 87.4281 118.559 87.4281Z" fill="#4DC3E8" fill-opacity="0.6"/>
<path d="M133.272 93.3634C134.789 93.3634 136.019 92.1337 136.019 90.6165C136.019 89.0994 134.789 87.8696 133.272 87.8696C131.755 87.8696 130.525 89.0994 130.525 90.6165C130.525 92.1337 131.755 93.3634 133.272 93.3634Z" fill="#4DC3E8" fill-opacity="0.6"/>
<path d="M147.954 100.625C148.687 100.625 149.28 100.032 149.28 99.299C149.28 98.5669 148.687 97.973 147.954 97.973C147.222 97.973 146.628 98.5669 146.628 99.299C146.628 100.032 147.222 100.625 147.954 100.625Z" fill="#4DC3E8" fill-opacity="0.6"/>
<path d="M74.5143 78.524C77.5485 78.524 80.0081 76.0644 80.0081 73.0302C80.0081 69.9963 77.5485 67.5363 74.5143 67.5363C71.4801 67.5363 69.0205 69.9963 69.0205 73.0302C69.0205 76.0644 71.4801 78.524 74.5143 78.524Z" fill="#4DC3E8" fill-opacity="0.6"/>
<path d="M89.1969 87.2068C92.2311 87.2068 94.6908 84.7472 94.6908 81.713C94.6908 78.6791 92.2311 76.2192 89.1969 76.2192C86.1627 76.2192 83.7031 78.6791 83.7031 81.713C83.7031 84.7472 86.1627 87.2068 89.1969 87.2068Z" fill="#4DC3E8" fill-opacity="0.6"/>
<path d="M103.878 95.8579C106.912 95.8579 109.371 93.3983 109.371 90.3641C109.371 87.3302 106.912 84.8703 103.878 84.8703C100.843 84.8703 98.3838 87.3302 98.3838 90.3641C98.3838 93.3983 100.843 95.8579 103.878 95.8579Z" fill="#4DC3E8" fill-opacity="0.6"/>
<path d="M118.559 104.541C121.593 104.541 124.053 102.081 124.053 99.0468C124.053 96.0129 121.593 93.553 118.559 93.553C115.525 93.553 113.065 96.0129 113.065 99.0468C113.065 102.081 115.525 104.541 118.559 104.541Z" fill="#4DC3E8" fill-opacity="0.6"/>
<path d="M133.272 110.476C134.789 110.476 136.019 109.246 136.019 107.729C136.019 106.212 134.789 104.982 133.272 104.982C131.755 104.982 130.525 106.212 130.525 107.729C130.525 109.246 131.755 110.476 133.272 110.476Z" fill="#4DC3E8" fill-opacity="0.6"/>
<path d="M147.954 117.739C148.687 117.739 149.28 117.145 149.28 116.413C149.28 115.68 148.687 115.086 147.954 115.086C147.222 115.086 146.628 115.68 146.628 116.413C146.628 117.145 147.222 117.739 147.954 117.739Z" fill="#4DC3E8" fill-opacity="0.6"/>
<path d="M74.5135 92.8901C76.0306 92.8901 77.2604 91.6604 77.2604 90.1432C77.2604 88.6261 76.0306 87.3963 74.5135 87.3963C72.9964 87.3963 71.7666 88.6261 71.7666 90.1432C71.7666 91.6604 72.9964 92.8901 74.5135 92.8901Z" fill="#4DC3E8" fill-opacity="0.6"/>
<path d="M89.1964 101.541C90.7132 101.541 91.943 100.311 91.943 98.7943C91.943 97.2772 90.7132 96.0474 89.1964 96.0474C87.6793 96.0474 86.4492 97.2772 86.4492 98.7943C86.4492 100.311 87.6793 101.541 89.1964 101.541Z" fill="#4DC3E8" fill-opacity="0.6"/>
<path d="M103.878 110.224C105.395 110.224 106.625 108.994 106.625 107.477C106.625 105.96 105.395 104.73 103.878 104.73C102.361 104.73 101.131 105.96 101.131 107.477C101.131 108.994 102.361 110.224 103.878 110.224Z" fill="#4DC3E8" fill-opacity="0.6"/>
<path d="M118.559 118.907C120.077 118.907 121.306 117.677 121.306 116.16C121.306 114.643 120.077 113.413 118.559 113.413C117.042 113.413 115.812 114.643 115.812 116.16C115.812 117.677 117.042 118.907 118.559 118.907Z" fill="#4DC3E8" fill-opacity="0.6"/>
<path d="M133.273 126.169C134.005 126.169 134.598 125.575 134.598 124.842C134.598 124.11 134.005 123.516 133.273 123.516C132.54 123.516 131.946 124.11 131.946 124.842C131.946 125.575 132.54 126.169 133.273 126.169Z" fill="#4DC3E8" fill-opacity="0.6"/>
<path d="M147.954 134.851C148.687 134.851 149.28 134.258 149.28 133.525C149.28 132.793 148.687 132.199 147.954 132.199C147.222 132.199 146.628 132.793 146.628 133.525C146.628 134.258 147.222 134.851 147.954 134.851Z" fill="#4DC3E8" fill-opacity="0.6"/>
<path d="M74.5146 108.55C75.2468 108.55 75.8407 107.957 75.8407 107.224C75.8407 106.492 75.2468 105.898 74.5146 105.898C73.7821 105.898 73.1885 106.492 73.1885 107.224C73.1885 107.957 73.7821 108.55 74.5146 108.55Z" fill="#4DC3E8" fill-opacity="0.6"/>
<path d="M89.1952 117.233C89.9277 117.233 90.5213 116.639 90.5213 115.907C90.5213 115.175 89.9277 114.581 89.1952 114.581C88.4627 114.581 87.8691 115.175 87.8691 115.907C87.8691 116.639 88.4627 117.233 89.1952 117.233Z" fill="#4DC3E8" fill-opacity="0.6"/>
<path d="M103.877 125.916C104.609 125.916 105.203 125.322 105.203 124.59C105.203 123.858 104.609 123.264 103.877 123.264C103.144 123.264 102.551 123.858 102.551 124.59C102.551 125.322 103.144 125.916 103.877 125.916Z" fill="#4DC3E8" fill-opacity="0.6"/>
<path d="M118.56 134.598C119.292 134.598 119.886 134.005 119.886 133.272C119.886 132.54 119.292 131.946 118.56 131.946C117.827 131.946 117.233 132.54 117.233 133.272C117.233 134.005 117.827 134.598 118.56 134.598Z" fill="#4DC3E8" fill-opacity="0.6"/>
<path d="M133.273 143.281C134.005 143.281 134.598 142.688 134.598 141.955C134.598 141.223 134.005 140.629 133.273 140.629C132.54 140.629 131.946 141.223 131.946 141.955C131.946 142.688 132.54 143.281 133.273 143.281Z" fill="#4DC3E8" fill-opacity="0.6"/>
<path d="M74.5146 125.664C75.2468 125.664 75.8407 125.07 75.8407 124.337C75.8407 123.605 75.2468 123.011 74.5146 123.011C73.7821 123.011 73.1885 123.605 73.1885 124.337C73.1885 125.07 73.7821 125.664 74.5146 125.664Z" fill="#4DC3E8" fill-opacity="0.6"/>
<path d="M89.1952 134.346C89.9277 134.346 90.5213 133.753 90.5213 133.02C90.5213 132.288 89.9277 131.694 89.1952 131.694C88.4627 131.694 87.8691 132.288 87.8691 133.02C87.8691 133.753 88.4627 134.346 89.1952 134.346Z" fill="#4DC3E8" fill-opacity="0.6"/>
<path d="M103.877 143.029C104.609 143.029 105.203 142.435 105.203 141.703C105.203 140.97 104.609 140.377 103.877 140.377C103.144 140.377 102.551 140.97 102.551 141.703C102.551 142.435 103.144 143.029 103.877 143.029Z" fill="#4DC3E8" fill-opacity="0.6"/>
<path d="M118.56 151.712C119.292 151.712 119.886 151.118 119.886 150.386C119.886 149.653 119.292 149.06 118.56 149.06C117.827 149.06 117.233 149.653 117.233 150.386C117.233 151.118 117.827 151.712 118.56 151.712Z" fill="#4DC3E8" fill-opacity="0.6"/>
<path d="M74.5146 142.776C75.2468 142.776 75.8407 142.183 75.8407 141.45C75.8407 140.718 75.2468 140.124 74.5146 140.124C73.7821 140.124 73.1885 140.718 73.1885 141.45C73.1885 142.183 73.7821 142.776 74.5146 142.776Z" fill="#4DC3E8" fill-opacity="0.6"/>
<path d="M89.1952 151.459C89.9277 151.459 90.5213 150.865 90.5213 150.133C90.5213 149.401 89.9277 148.807 89.1952 148.807C88.4627 148.807 87.8691 149.401 87.8691 150.133C87.8691 150.865 88.4627 151.459 89.1952 151.459Z" fill="#4DC3E8" fill-opacity="0.6"/>
<path d="M103.877 160.142C104.609 160.142 105.203 159.548 105.203 158.816C105.203 158.083 104.609 157.489 103.877 157.489C103.144 157.489 102.551 158.083 102.551 158.816C102.551 159.548 103.144 160.142 103.877 160.142Z" fill="#4DC3E8" fill-opacity="0.6"/>
<path d="M74.5146 159.889C75.2468 159.889 75.8407 159.295 75.8407 158.563C75.8407 157.831 75.2468 157.237 74.5146 157.237C73.7821 157.237 73.1885 157.831 73.1885 158.563C73.1885 159.295 73.7821 159.889 74.5146 159.889Z" fill="#4DC3E8" fill-opacity="0.6"/>
<path d="M89.1952 168.572C89.9277 168.572 90.5213 167.978 90.5213 167.245C90.5213 166.513 89.9277 165.919 89.1952 165.919C88.4627 165.919 87.8691 166.513 87.8691 167.245C87.8691 167.978 88.4627 168.572 89.1952 168.572Z" fill="#4DC3E8" fill-opacity="0.6"/>
<path d="M74.5146 177.002C75.2468 177.002 75.8407 176.409 75.8407 175.676C75.8407 174.944 75.2468 174.35 74.5146 174.35C73.7821 174.35 73.1885 174.944 73.1885 175.676C73.1885 176.409 73.7821 177.002 74.5146 177.002Z" fill="#4DC3E8" fill-opacity="0.6"/>
<path d="M72.9989 2.65218C73.7311 2.65218 74.325 2.05859 74.325 1.32609C74.325 0.593894 73.7311 0 72.9989 0C72.2664 0 71.6729 0.593894 71.6729 1.32609C71.6729 2.05859 72.2664 2.65218 72.9989 2.65218Z" fill="#4DC3E8" fill-opacity="0.6"/>
<path d="M58.3166 11.335C59.0488 11.335 59.6424 10.7414 59.6424 10.0089C59.6424 9.27666 59.0488 8.68277 58.3166 8.68277C57.5841 8.68277 56.9902 9.27666 56.9902 10.0089C56.9902 10.7414 57.5841 11.335 58.3166 11.335Z" fill="#4DC3E8" fill-opacity="0.6"/>
<path d="M43.6347 20.0176C44.3672 20.0176 44.9608 19.424 44.9608 18.6915C44.9608 17.9593 44.3672 17.3654 43.6347 17.3654C42.9025 17.3654 42.3086 17.9593 42.3086 18.6915C42.3086 19.424 42.9025 20.0176 43.6347 20.0176Z" fill="#4DC3E8" fill-opacity="0.6"/>
<path d="M28.953 28.7005C29.6852 28.7005 30.2791 28.1069 30.2791 27.3744C30.2791 26.6422 29.6852 26.0483 28.953 26.0483C28.2205 26.0483 27.627 26.6422 27.627 27.3744C27.627 28.1069 28.2205 28.7005 28.953 28.7005Z" fill="#4DC3E8" fill-opacity="0.6"/>
<path d="M14.2714 37.3832C15.0036 37.3832 15.5975 36.7896 15.5975 36.0571C15.5975 35.3249 15.0036 34.731 14.2714 34.731C13.5389 34.731 12.9453 35.3249 12.9453 36.0571C12.9453 36.7896 13.5389 37.3832 14.2714 37.3832Z" fill="#4DC3E8" fill-opacity="0.6"/>
<path d="M72.9989 19.7655C73.7311 19.7655 74.325 19.1716 74.325 18.4394C74.325 17.7069 73.7311 17.1133 72.9989 17.1133C72.2664 17.1133 71.6729 17.7069 71.6729 18.4394C71.6729 19.1716 72.2664 19.7655 72.9989 19.7655Z" fill="#4DC3E8" fill-opacity="0.6"/>
<path d="M58.3166 28.4483C59.0488 28.4483 59.6424 27.8544 59.6424 27.1222C59.6424 26.3897 59.0488 25.7961 58.3166 25.7961C57.5841 25.7961 56.9902 26.3897 56.9902 27.1222C56.9902 27.8544 57.5841 28.4483 58.3166 28.4483Z" fill="#4DC3E8" fill-opacity="0.6"/>
<path d="M43.6347 37.1312C44.3672 37.1312 44.9608 36.5373 44.9608 35.8051C44.9608 35.0726 44.3672 34.479 43.6347 34.479C42.9025 34.479 42.3086 35.0726 42.3086 35.8051C42.3086 36.5373 42.9025 37.1312 43.6347 37.1312Z" fill="#4DC3E8" fill-opacity="0.6"/>
<path d="M72.7773 2.65218C73.5098 2.65218 74.1034 2.05859 74.1034 1.32609C74.1034 0.593894 73.5098 0 72.7773 0C72.0451 0 71.4512 0.593894 71.4512 1.32609C71.4512 2.05859 72.0451 2.65218 72.7773 2.65218Z" fill="#4DC3E8" fill-opacity="0.6"/>
<path d="M87.4589 11.335C88.1914 11.335 88.785 10.7414 88.785 10.0089C88.785 9.27666 88.1914 8.68277 87.4589 8.68277C86.7267 8.68277 86.1328 9.27666 86.1328 10.0089C86.1328 10.7414 86.7267 11.335 87.4589 11.335Z" fill="#4DC3E8" fill-opacity="0.6"/>
<path d="M102.142 20.0176C102.874 20.0176 103.468 19.424 103.468 18.6915C103.468 17.9593 102.874 17.3654 102.142 17.3654C101.409 17.3654 100.815 17.9593 100.815 18.6915C100.815 19.424 101.409 20.0176 102.142 20.0176Z" fill="#4DC3E8" fill-opacity="0.6"/>
<path d="M116.822 28.7005C117.555 28.7005 118.148 28.1069 118.148 27.3744C118.148 26.6422 117.555 26.0483 116.822 26.0483C116.09 26.0483 115.496 26.6422 115.496 27.3744C115.496 28.1069 116.09 28.7005 116.822 28.7005Z" fill="#4DC3E8" fill-opacity="0.6"/>
<path d="M131.536 37.3832C132.269 37.3832 132.862 36.7896 132.862 36.0571C132.862 35.3249 132.269 34.731 131.536 34.731C130.804 34.731 130.21 35.3249 130.21 36.0571C130.21 36.7896 130.804 37.3832 131.536 37.3832Z" fill="#4DC3E8" fill-opacity="0.6"/>
<path d="M72.7773 19.7655C73.5098 19.7655 74.1034 19.1716 74.1034 18.4394C74.1034 17.7069 73.5098 17.1133 72.7773 17.1133C72.0451 17.1133 71.4512 17.7069 71.4512 18.4394C71.4512 19.1716 72.0451 19.7655 72.7773 19.7655Z" fill="#4DC3E8" fill-opacity="0.6"/>
<path d="M87.4589 28.4483C88.1914 28.4483 88.785 27.8544 88.785 27.1222C88.785 26.3897 88.1914 25.7961 87.4589 25.7961C86.7267 25.7961 86.1328 26.3897 86.1328 27.1222C86.1328 27.8544 86.7267 28.4483 87.4589 28.4483Z" fill="#4DC3E8" fill-opacity="0.6"/>
<path d="M102.142 37.1312C102.874 37.1312 103.468 36.5373 103.468 35.8051C103.468 35.0726 102.874 34.479 102.142 34.479C101.409 34.479 100.815 35.0726 100.815 35.8051C100.815 36.5373 101.409 37.1312 102.142 37.1312Z" fill="#4DC3E8" fill-opacity="0.6"/>
</g>
<defs>
<clipPath id="clip0_2014_6766">
<rect width="149.28" height="177.002" fill="white"/>
</clipPath>
</defs>
</svg>
