<svg width="153" height="149" viewBox="0 0 153 149" fill="none" xmlns="http://www.w3.org/2000/svg">
<g clip-path="url(#clip0_2014_6882)">
<path opacity="0.95" d="M26.1133 122.999V149L48.6106 135.988V110.009L26.1133 122.999Z" fill="#E84D4D" fill-opacity="0.6"/>
<path opacity="0.5" d="M22.4973 122.999V149L0 135.988V110.009L22.4973 122.999Z" fill="#E84D4D" fill-opacity="0.6"/>
<path opacity="0.3" d="M26.1133 94.9217V118.825L46.8251 106.862L26.1133 94.9217Z" fill="#E84D4D" fill-opacity="0.6"/>
<path opacity="0.75" d="M22.497 94.9217L1.78516 106.862L22.497 118.825V94.9217Z" fill="#E84D4D" fill-opacity="0.6"/>
<path opacity="0.95" d="M22.4973 88.5385V62.5371L0 75.5489V101.528L22.4973 88.5385Z" fill="#E84D4D" fill-opacity="0.6"/>
<path opacity="0.95" d="M26.1133 28.0771V54.0785L48.6106 41.0666V15.0876L26.1133 28.0771Z" fill="#E84D4D" fill-opacity="0.6"/>
<path opacity="0.5" d="M22.4973 28.0771V54.0785L0 41.0666V15.0876L22.4973 28.0771Z" fill="#E84D4D" fill-opacity="0.6"/>
<path opacity="0.3" d="M26.1133 0V23.9034L46.8251 11.9405L26.1133 0Z" fill="#E84D4D" fill-opacity="0.6"/>
<path opacity="0.75" d="M22.497 0L1.78516 11.9405L22.497 23.9034V0Z" fill="#E84D4D" fill-opacity="0.6"/>
<path opacity="0.75" d="M1.78516 46.2444V70.17L22.497 58.2072L1.78516 46.2444Z" fill="#E84D4D" fill-opacity="0.6"/>
<path opacity="0.15" d="M46.8251 46.2444L26.1133 58.2072L46.8251 70.17V46.2444Z" fill="#E84D4D" fill-opacity="0.6"/>
<path opacity="0.5" d="M26.1133 88.5385V62.5371L48.6106 75.5489V101.528L26.1133 88.5385Z" fill="#E84D4D" fill-opacity="0.6"/>
<path opacity="0.95" d="M78.5625 122.999V149L101.06 135.988V110.009L78.5625 122.999Z" fill="#E84D4D" fill-opacity="0.6"/>
<path opacity="0.5" d="M74.9465 122.999V149L52.4492 135.988V110.009L74.9465 122.999Z" fill="#E84D4D" fill-opacity="0.6"/>
<path opacity="0.3" d="M78.5625 94.9217V118.825L99.2743 106.862L78.5625 94.9217Z" fill="#E84D4D" fill-opacity="0.6"/>
<path opacity="0.75" d="M74.9462 94.9217L54.2344 106.862L74.9462 118.825V94.9217Z" fill="#E84D4D" fill-opacity="0.6"/>
<path opacity="0.95" d="M74.9465 88.5385V62.5371L52.4492 75.5489V101.528L74.9465 88.5385Z" fill="#E84D4D" fill-opacity="0.6"/>
<path opacity="0.95" d="M78.5625 28.0771V54.0785L101.06 41.0666V15.0876L78.5625 28.0771Z" fill="#E84D4D" fill-opacity="0.6"/>
<path opacity="0.5" d="M74.9465 28.0771V54.0785L52.4492 41.0666V15.0876L74.9465 28.0771Z" fill="#E84D4D" fill-opacity="0.6"/>
<path opacity="0.3" d="M78.5625 0V23.9034L99.2743 11.9405L78.5625 0Z" fill="#E84D4D" fill-opacity="0.6"/>
<path opacity="0.75" d="M74.9462 0L54.2344 11.9405L74.9462 23.9034V0Z" fill="#E84D4D" fill-opacity="0.6"/>
<path opacity="0.75" d="M54.2344 46.2444V70.17L74.9462 58.2072L54.2344 46.2444Z" fill="#E84D4D" fill-opacity="0.6"/>
<path opacity="0.15" d="M99.2743 46.2444L78.5625 58.2072L99.2743 70.17V46.2444Z" fill="#E84D4D" fill-opacity="0.6"/>
<path opacity="0.5" d="M78.5625 88.5385V62.5371L101.06 75.5489V101.528L78.5625 88.5385Z" fill="#E84D4D" fill-opacity="0.6"/>
<path opacity="0.95" d="M130.252 122.999V149L152.771 135.988V110.009L130.252 122.999Z" fill="#E84D4D" fill-opacity="0.6"/>
<path opacity="0.5" d="M126.658 122.999V149L104.139 135.988V110.009L126.658 122.999Z" fill="#E84D4D" fill-opacity="0.6"/>
<path opacity="0.3" d="M130.252 94.9217V118.825L150.964 106.862L130.252 94.9217Z" fill="#E84D4D" fill-opacity="0.6"/>
<path opacity="0.75" d="M126.659 94.9217L105.947 106.862L126.659 118.825V94.9217Z" fill="#E84D4D" fill-opacity="0.6"/>
<path opacity="0.95" d="M126.658 88.5385V62.5371L104.139 75.5489V101.528L126.658 88.5385Z" fill="#E84D4D" fill-opacity="0.6"/>
<path opacity="0.95" d="M130.252 28.0771V54.0785L152.771 41.0666V15.0876L130.252 28.0771Z" fill="#E84D4D" fill-opacity="0.6"/>
<path opacity="0.5" d="M126.658 28.0771V54.0785L104.139 41.0666V15.0876L126.658 28.0771Z" fill="#E84D4D" fill-opacity="0.6"/>
<path opacity="0.3" d="M130.252 0V23.9034L150.964 11.9405L130.252 0Z" fill="#E84D4D" fill-opacity="0.6"/>
<path opacity="0.75" d="M126.659 0L105.947 11.9405L126.659 23.9034V0Z" fill="#E84D4D" fill-opacity="0.6"/>
<path opacity="0.75" d="M105.947 46.2444V70.17L126.659 58.2072L105.947 46.2444Z" fill="#E84D4D" fill-opacity="0.6"/>
<path opacity="0.15" d="M150.964 46.2444L130.252 58.2072L150.964 70.17V46.2444Z" fill="#E84D4D" fill-opacity="0.6"/>
<path opacity="0.5" d="M130.252 88.5385V62.5371L152.771 75.5489V101.528L130.252 88.5385Z" fill="#E84D4D" fill-opacity="0.6"/>
</g>
<defs>
<clipPath id="clip0_2014_6882">
<rect width="152.771" height="149" fill="white"/>
</clipPath>
</defs>
</svg>
